<?xml version="1.0" encoding="utf-8"?>
<!-- Generator: Adobe Illustrator 28.0.0, SVG Export Plug-In . SVG Version: 6.00 Build 0)  -->
<svg version="1.1" id="Layer_1" xmlns="http://www.w3.org/2000/svg" xmlns:xlink="http://www.w3.org/1999/xlink" x="0px" y="0px"
	 viewBox="0 0 256 256" style="enable-background:new 0 0 256 256;" xml:space="preserve">
<path d="M202.8,148.2v20h-10v-20H202.8z M162.8,168.2v30h10v-20h20v-10H162.8z M192.8,148.2v-10h-40v10H192.8z M142.8,198.2v10h20
	v-10H142.8z M152.8,138.2v-10h-10v10H152.8z M142.8,168.2h-10v30h10V168.2z M142.8,128.2v-10h-10v10H142.8z M122.8,158.2v10h10v-10
	H122.8z M132.8,118.2v-10h-10v10H132.8z M112.8,148.2v10h10v-10C122.8,148.2,112.8,148.2,112.8,148.2z M112.8,108.2h10v-40h-10
	V108.2z M102.8,138.2v10h10v-10H102.8z M112.8,68.2v-10h-20v10H112.8z M92.8,128.2v10h10v-10H92.8z M62.8,118.2v10h30v-10H62.8z
	 M92.8,98.2v-30h-10v20h-20v10H92.8z M62.8,98.2h-10v20h10V98.2z"/>
<g>
	<rect x="184.7" y="28.4" width="14.3" height="14.3"/>
	<rect x="199" y="42.7" width="14.3" height="14.3"/>
	<polygon points="213.3,57 213.3,71.3 170.5,71.3 170.5,85.5 213.3,85.5 213.3,228.4 227.6,228.4 227.6,57 	"/>
	<rect x="27.6" y="28.4" width="14.3" height="200"/>
	<rect x="41.9" y="228.4" width="171.4" height="14.3"/>
	<polygon points="156.2,71.3 170.5,71.3 170.5,28.4 184.7,28.4 184.7,14.1 41.9,14.1 41.9,28.4 156.2,28.4 	"/>
</g>
</svg>
