<?xml version="1.0" encoding="utf-8"?>
<!-- Generator: Adobe Illustrator 28.0.0, SVG Export Plug-In . SVG Version: 6.00 Build 0)  -->
<svg version="1.1" id="Layer_1" xmlns="http://www.w3.org/2000/svg" xmlns:xlink="http://www.w3.org/1999/xlink" x="0px" y="0px"
	 viewBox="0 0 251.9 160.6" style="enable-background:new 0 0 251.9 160.6;" xml:space="preserve">
<style type="text/css">
	.st0{display:none;opacity:0.5;}
	.st1{display:inline;opacity:0;fill:#FFFFFF;}
	.st2{display:inline;opacity:1.960784e-02;fill:#FAFAFA;}
	.st3{display:inline;opacity:3.921569e-02;fill:#F5F5F5;}
	.st4{display:inline;opacity:5.882353e-02;fill:#F0F0F0;}
	.st5{display:inline;opacity:7.843138e-02;fill:#EBEBEB;}
	.st6{display:inline;opacity:9.803922e-02;fill:#E6E6E6;}
	.st7{display:inline;opacity:0.1176;fill:#E1E1E1;}
	.st8{display:inline;opacity:0.1373;fill:#DCDCDC;}
	.st9{display:inline;opacity:0.1569;fill:#D7D7D7;}
	.st10{display:inline;opacity:0.1765;fill:#D2D2D2;}
	.st11{display:inline;opacity:0.1961;fill:#CDCDCD;}
	.st12{display:inline;opacity:0.2157;fill:#C8C8C8;}
	.st13{display:inline;opacity:0.2353;fill:#C3C3C3;}
	.st14{display:inline;opacity:0.2549;fill:#BEBEBE;}
	.st15{display:inline;opacity:0.2745;fill:#B9B9B9;}
	.st16{display:inline;opacity:0.2941;fill:#B4B4B4;}
	.st17{display:inline;opacity:0.3137;fill:#AFAFAF;}
	.st18{display:inline;opacity:0.3333;fill:#AAAAAA;}
	.st19{display:inline;opacity:0.3529;fill:#A5A5A5;}
	.st20{display:inline;opacity:0.3725;fill:#A0A0A0;}
	.st21{display:inline;opacity:0.3922;fill:#9B9B9B;}
	.st22{display:inline;opacity:0.4118;fill:#969696;}
	.st23{display:inline;opacity:0.4314;fill:#919191;}
	.st24{display:inline;opacity:0.451;fill:#8C8C8C;}
	.st25{display:inline;opacity:0.4706;fill:#878787;}
	.st26{display:inline;opacity:0.4902;fill:#828282;}
	.st27{display:inline;opacity:0.5098;fill:#7D7D7D;}
	.st28{display:inline;opacity:0.5294;fill:#787878;}
	.st29{display:inline;opacity:0.549;fill:#737373;}
	.st30{display:inline;opacity:0.5686;fill:#6E6E6E;}
	.st31{display:inline;opacity:0.5882;fill:#696969;}
	.st32{display:inline;opacity:0.6078;fill:#646464;}
	.st33{display:inline;opacity:0.6275;fill:#5F5F5F;}
	.st34{display:inline;opacity:0.6471;fill:#5A5A5A;}
	.st35{display:inline;opacity:0.6667;fill:#555555;}
	.st36{display:inline;opacity:0.6863;fill:#505050;}
	.st37{display:inline;opacity:0.7059;fill:#4B4B4B;}
	.st38{display:inline;opacity:0.7255;fill:#464646;}
	.st39{display:inline;opacity:0.7451;fill:#414141;}
	.st40{display:inline;opacity:0.7647;fill:#3C3C3C;}
	.st41{display:inline;opacity:0.7843;fill:#373737;}
	.st42{display:inline;opacity:0.8039;fill:#323232;}
	.st43{display:inline;opacity:0.8235;fill:#2D2D2D;}
	.st44{display:inline;opacity:0.8431;fill:#282828;}
	.st45{display:inline;opacity:0.8627;fill:#232323;}
	.st46{display:inline;opacity:0.8824;fill:#1E1E1E;}
	.st47{display:inline;opacity:0.902;fill:#191919;}
	.st48{display:inline;opacity:0.9216;fill:#141414;}
	.st49{display:inline;opacity:0.9412;fill:#0F0F0F;}
	.st50{display:inline;opacity:0.9608;fill:#0A0A0A;}
	.st51{display:inline;opacity:0.9804;fill:#050505;}
	.st52{display:inline;}
	.st53{fill:#BC6C25;}
	.st54{fill:#780000;}
	.st55{opacity:0;fill:#FFFFFF;}
	.st56{opacity:1.960784e-02;fill:#FAFAFA;}
	.st57{opacity:3.921569e-02;fill:#F5F5F5;}
	.st58{opacity:5.882353e-02;fill:#F0F0F0;}
	.st59{opacity:7.843138e-02;fill:#EBEBEB;}
	.st60{opacity:9.803922e-02;fill:#E6E6E6;}
	.st61{opacity:0.1176;fill:#E1E1E1;}
	.st62{opacity:0.1373;fill:#DCDCDC;}
	.st63{opacity:0.1569;fill:#D7D7D7;}
	.st64{opacity:0.1765;fill:#D2D2D2;}
	.st65{opacity:0.1961;fill:#CDCDCD;}
	.st66{opacity:0.2157;fill:#C8C8C8;}
	.st67{opacity:0.2353;fill:#C3C3C3;}
	.st68{opacity:0.2549;fill:#BEBEBE;}
	.st69{opacity:0.2745;fill:#B9B9B9;}
	.st70{opacity:0.2941;fill:#B4B4B4;}
	.st71{opacity:0.3137;fill:#AFAFAF;}
	.st72{opacity:0.3333;fill:#AAAAAA;}
	.st73{opacity:0.3529;fill:#A5A5A5;}
	.st74{opacity:0.3725;fill:#A0A0A0;}
	.st75{opacity:0.3922;fill:#9B9B9B;}
	.st76{opacity:0.4118;fill:#969696;}
	.st77{opacity:0.4314;fill:#919191;}
	.st78{opacity:0.451;fill:#8C8C8C;}
	.st79{opacity:0.4706;fill:#878787;}
	.st80{opacity:0.4902;fill:#828282;}
	.st81{opacity:0.5098;fill:#7D7D7D;}
	.st82{opacity:0.5294;fill:#787878;}
	.st83{opacity:0.549;fill:#737373;}
	.st84{opacity:0.5686;fill:#6E6E6E;}
	.st85{opacity:0.5882;fill:#696969;}
	.st86{opacity:0.6078;fill:#646464;}
	.st87{opacity:0.6275;fill:#5F5F5F;}
	.st88{opacity:0.6471;fill:#5A5A5A;}
	.st89{opacity:0.6667;fill:#555555;}
	.st90{opacity:0.6863;fill:#505050;}
	.st91{opacity:0.7059;fill:#4B4B4B;}
	.st92{opacity:0.7255;fill:#464646;}
	.st93{opacity:0.7451;fill:#414141;}
	.st94{opacity:0.7647;fill:#3C3C3C;}
	.st95{opacity:0.7843;fill:#373737;}
	.st96{opacity:0.8039;fill:#323232;}
	.st97{opacity:0.8235;fill:#2D2D2D;}
	.st98{opacity:0.8431;fill:#282828;}
	.st99{opacity:0.8627;fill:#232323;}
	.st100{opacity:0.8824;fill:#1E1E1E;}
	.st101{opacity:0.902;fill:#191919;}
	.st102{opacity:0.9216;fill:#141414;}
	.st103{opacity:0.9412;fill:#0F0F0F;}
	.st104{opacity:0.9608;fill:#0A0A0A;}
	.st105{opacity:0.9804;fill:#050505;}
	.st106{fill:url(#SVGID_1_);}
	.st107{fill:url(#SVGID_00000059279147171682004000000003028288321064099726_);}
	.st108{fill:url(#SVGID_00000081611339008595332640000015171565294944014241_);}
	.st109{fill:url(#SVGID_00000119810728590420228160000011052350690170564283_);}
	.st110{fill:url(#SVGID_00000145041051659193781750000015069332106771465118_);}
	.st111{fill:url(#SVGID_00000150794293692198187740000000664690551898341521_);}
	.st112{fill:url(#SVGID_00000121996296650914240520000006435094695965096114_);}
	.st113{fill:url(#SVGID_00000084513395046351617100000016572623980244706491_);}
	.st114{fill:url(#SVGID_00000183214343999231410740000011032109953324100264_);}
	.st115{fill:url(#SVGID_00000149340869621800683140000004914866232531991467_);}
	.st116{fill:url(#SVGID_00000164504211371381263500000011867356096837674373_);}
	.st117{fill:url(#SVGID_00000103259450463405406430000013370492604648096182_);}
	.st118{fill:url(#SVGID_00000113339586538922940980000001457881742872904861_);}
	.st119{fill:url(#SVGID_00000015340244405001835570000006076704741302284430_);}
	.st120{fill:url(#SVGID_00000096050047639905985240000015959575481239885477_);}
	.st121{fill:url(#SVGID_00000064317972289928572200000015546441284933223346_);}
	.st122{fill:url(#SVGID_00000011010950401349600790000015882441944303230339_);}
	.st123{fill:url(#SVGID_00000058552792268377887940000015691575582206039203_);}
	.st124{fill:url(#SVGID_00000047027347538558069330000011251523138476897684_);}
	.st125{fill:url(#SVGID_00000151527077615311090460000003923997549634673340_);}
	.st126{fill:url(#SVGID_00000102532677897379791270000010721183015765867710_);}
	.st127{fill:url(#SVGID_00000020389872331561974980000016909612160418866073_);}
	.st128{fill:url(#SVGID_00000008842399495502581310000003017691306723731640_);}
	.st129{fill:url(#SVGID_00000181777249445151778770000004634334814714601894_);}
	.st130{fill:url(#SVGID_00000053510712651638290600000006967842486186391991_);}
	.st131{fill:url(#SVGID_00000109013686684356497770000015803712155940585899_);}
	.st132{fill:url(#SVGID_00000163061562051362401240000003020306670563425680_);}
	.st133{fill:url(#SVGID_00000126318782278113156480000014057903614856715175_);}
	.st134{fill:#3D2802;}
</style>
<g>
	<g class="st0">
		<path class="st1" d="M0.9,4.5v151.7c0,1.5,0.9,2.9,2.4,3.4c8.7,3.2,38.8,16.3,67.7,16.3c43.4,0,39-11.1,54.9-11.1
			c11.8,0,25.4,11.1,49.6,11.1c41.1,0,64.4-12.4,72.4-15.8c1.8-0.8,3-2.6,3-4.5V5.7c0-2.4-2-4.4-4.4-4.4H4.1
			C2.4,1.3,0.9,2.7,0.9,4.5z"/>
		<path class="st2" d="M1,4.6v151.6c0,1.5,1,2.9,2.4,3.4c8.5,3.1,39.4,16,67.8,16c42.8,0,38.9-10.9,54.7-10.9
			c11.7,0,25.6,10.9,49.5,10.9c40.3,0,64.6-12.2,72.4-15.5c1.8-0.8,3-2.5,3-4.5V5.7c0-2.4-2-4.4-4.4-4.4H4.2C2.4,1.4,1,2.8,1,4.6z"
			/>
		<path class="st3" d="M1,4.6v151.5c0,1.5,1,2.9,2.4,3.4c8.3,3,40.1,15.7,67.9,15.7c42.2,0,38.8-10.6,54.6-10.6
			c11.7,0,25.8,10.6,49.4,10.6c39.5,0,64.8-12,72.4-15.2c1.8-0.8,3-2.5,3-4.5V5.8c0-2.4-2-4.4-4.4-4.4H4.2C2.5,1.4,1,2.9,1,4.6z"/>
		<path class="st4" d="M1.1,4.7v151.4c0,1.5,1,2.9,2.4,3.4c8.2,2.9,40.7,15.4,68,15.4c41.6,0,38.8-10.4,54.4-10.4
			c11.7,0,25.9,10.4,49.4,10.4c38.7,0,64.9-11.8,72.4-14.9c1.8-0.8,3-2.5,3-4.5V5.9c0-2.4-2-4.4-4.4-4.4H4.3
			C2.5,1.5,1.1,2.9,1.1,4.7z"/>
		<path class="st5" d="M1.2,4.7V156c0,1.5,1,2.8,2.4,3.3c8,2.8,41.4,15.1,68.1,15.1c40.9,0,38.7-10.2,54.3-10.2
			c11.7,0,26.1,10.2,49.3,10.2c37.9,0,65.1-11.6,72.4-14.6c1.8-0.7,3-2.5,3-4.5V5.9c0-2.4-2-4.4-4.4-4.4H4.3C2.6,1.6,1.2,3,1.2,4.7z
			"/>
		<path class="st6" d="M1.2,4.8V156c0,1.5,1,2.8,2.4,3.3c7.9,2.7,42,14.7,68.1,14.7c40.3,0,38.6-10,54.1-10c11.7,0,26.3,10,49.2,10
			c37.1,0,65.2-11.3,72.5-14.3c1.8-0.7,3-2.5,3-4.4V6c0-2.4-2-4.4-4.4-4.4H4.4C2.6,1.6,1.2,3,1.2,4.8z"/>
		<path class="st7" d="M1.3,4.9v151.1c0,1.5,1,2.8,2.4,3.3c7.7,2.6,42.7,14.4,68.2,14.4c39.7,0,38.5-9.8,54-9.8
			c11.7,0,26.4,9.8,49.1,9.8c36.3,0,65.4-11.1,72.5-14c1.8-0.7,3-2.5,3-4.4V6c0-2.4-2-4.4-4.4-4.4H4.5C2.7,1.7,1.3,3.1,1.3,4.9z"/>
		<path class="st8" d="M1.3,4.9v151c0,1.5,1,2.8,2.4,3.3c7.5,2.6,43.3,14.1,68.3,14.1c39.1,0,38.5-9.6,53.8-9.6
			c11.7,0,26.6,9.6,49,9.6c35.5,0,65.6-10.9,72.5-13.7c1.8-0.7,3.1-2.4,3.1-4.4V6.1c0-2.4-2-4.4-4.4-4.4H4.5
			C2.7,1.7,1.3,3.2,1.3,4.9z"/>
		<path class="st9" d="M1.4,5v150.9c0,1.5,1,2.8,2.4,3.3c7.4,2.5,44,13.8,68.4,13.8c38.5,0,38.4-9.3,53.7-9.3
			c11.7,0,26.7,9.3,48.9,9.3c34.7,0,65.7-10.7,72.5-13.4c1.8-0.7,3.1-2.4,3.1-4.4V6.2c0-2.4-2-4.4-4.4-4.4H4.6
			C2.8,1.8,1.4,3.2,1.4,5z"/>
		<path class="st10" d="M1.4,5.1v150.8c0,1.5,1,2.8,2.4,3.3c7.2,2.4,44.6,13.5,68.5,13.5c37.8,0,38.3-9.1,53.5-9.1
			c11.7,0,26.9,9.1,48.8,9.1c33.9,0,65.9-10.5,72.5-13c1.8-0.7,3.1-2.4,3.1-4.4V6.2c0-2.4-1.9-4.4-4.4-4.4H4.6
			C2.9,1.9,1.4,3.3,1.4,5.1z"/>
		<path class="st11" d="M1.5,5.1v150.7c0,1.5,1,2.8,2.4,3.3c7,2.3,45.3,13.1,68.6,13.1c37.2,0,38.3-8.9,53.4-8.9
			c11.6,0,27.1,8.9,48.7,8.9c33.1,0,66-10.2,72.5-12.7c1.8-0.7,3.1-2.4,3.1-4.3V6.3c0-2.4-1.9-4.4-4.4-4.4H4.7
			C2.9,1.9,1.5,3.4,1.5,5.1z"/>
		<path class="st12" d="M1.5,5.2v150.6c0,1.5,1,2.8,2.4,3.2c6.9,2.2,45.9,12.8,68.6,12.8c36.6,0,38.2-8.7,53.2-8.7
			c11.6,0,27.2,8.7,48.6,8.7c32.2,0,66.2-10,72.5-12.4c1.8-0.7,3.1-2.4,3.1-4.3V6.4c0-2.4-1.9-4.3-4.3-4.3H4.7C3,2,1.5,3.4,1.5,5.2z
			"/>
		<path class="st13" d="M1.6,5.3v150.5c0,1.5,1,2.8,2.4,3.2c6.7,2.1,46.6,12.5,68.7,12.5c36,0,38.1-8.5,53.1-8.5
			c11.6,0,27.4,8.5,48.5,8.5c31.4,0,66.4-9.8,72.6-12.1c1.8-0.7,3.1-2.3,3.1-4.3V6.4c0-2.4-1.9-4.3-4.3-4.3H4.8
			C3,2.1,1.6,3.5,1.6,5.3z"/>
		<path class="st14" d="M1.6,5.3v150.3c0,1.5,1,2.8,2.5,3.2c6.6,2.1,47.2,12.2,68.8,12.2c35.4,0,38-8.2,52.9-8.2
			c11.6,0,27.5,8.2,48.4,8.2c30.6,0,66.5-9.6,72.6-11.8c1.8-0.7,3.1-2.3,3.1-4.3V6.5c0-2.4-1.9-4.3-4.3-4.3H4.8
			C3.1,2.1,1.6,3.6,1.6,5.3z"/>
		<path class="st15" d="M1.7,5.4v150.2c0,1.5,1,2.8,2.5,3.2c6.4,2,47.9,11.9,68.9,11.9c34.7,0,38-8,52.7-8c11.6,0,27.7,8,48.3,8
			c29.8,0,66.7-9.3,72.6-11.5c1.8-0.7,3.1-2.3,3.1-4.3V6.5c0-2.4-1.9-4.3-4.3-4.3H4.9C3.1,2.2,1.7,3.6,1.7,5.4z"/>
		<path class="st16" d="M1.8,5.5v150.1c0,1.5,1,2.7,2.5,3.2c6.2,1.9,48.5,11.5,69,11.5c34.1,0,37.9-7.8,52.6-7.8
			c11.6,0,27.9,7.8,48.2,7.8c29,0,66.9-9.1,72.6-11.2c1.8-0.7,3.1-2.3,3.1-4.2V6.6c0-2.4-1.9-4.3-4.3-4.3H5C3.2,2.3,1.8,3.7,1.8,5.5
			z"/>
		<path class="st17" d="M1.8,5.5v150c0,1.5,1,2.7,2.5,3.2c6.1,1.8,49.2,11.2,69,11.2c33.5,0,37.8-7.6,52.4-7.6
			c11.6,0,28,7.6,48.1,7.6c28.2,0,67-8.9,72.6-10.9c1.8-0.7,3.2-2.3,3.2-4.2V6.7c0-2.4-1.9-4.3-4.3-4.3H5C3.2,2.3,1.8,3.8,1.8,5.5z"
			/>
		<path class="st18" d="M1.9,5.6v149.9c0,1.5,1.1,2.7,2.5,3.2c5.9,1.8,49.8,10.9,69.1,10.9c32.9,0,37.8-7.4,52.3-7.4
			c11.6,0,28.2,7.4,48,7.4c27.4,0,67.2-8.6,72.6-10.6c1.8-0.6,3.2-2.2,3.2-4.2V6.7c0-2.4-1.9-4.3-4.3-4.3H5.1
			C3.3,2.4,1.9,3.8,1.9,5.6z"/>
		<path class="st19" d="M1.9,5.7v149.8c0,1.5,1.1,2.7,2.5,3.1c5.7,1.7,50.5,10.6,69.2,10.6c32.2,0,37.7-7.2,52.1-7.2
			c11.6,0,28.3,7.2,47.9,7.2c26.6,0,67.3-8.4,72.6-10.2c1.8-0.6,3.2-2.2,3.2-4.2V6.8c0-2.4-1.9-4.3-4.3-4.3H5.1
			C3.4,2.4,1.9,3.9,1.9,5.7z"/>
		<path class="st20" d="M2,5.7v149.7c0,1.5,1.1,2.7,2.5,3.1c5.6,1.6,51.1,10.3,69.3,10.3c31.6,0,37.6-6.9,52-6.9
			c11.6,0,28.5,6.9,47.9,6.9c25.8,0,67.5-8.2,72.6-9.9c1.8-0.6,3.2-2.2,3.2-4.2V6.8c0-2.4-1.9-4.3-4.3-4.3H5.2C3.4,2.5,2,3.9,2,5.7z
			"/>
		<path class="st21" d="M2,5.8v149.6c0,1.5,1.1,2.7,2.5,3.1c5.4,1.6,51.8,9.9,69.4,9.9c31,0,37.6-6.7,51.8-6.7
			c11.5,0,28.7,6.7,47.8,6.7c25,0,67.7-7.9,72.7-9.6c1.8-0.6,3.2-2.2,3.2-4.1V6.9c0-2.4-1.9-4.3-4.3-4.3H5.2C3.5,2.6,2,4,2,5.8z"/>
		<path class="st22" d="M2.1,5.8v149.5c0,1.5,1.1,2.7,2.5,3.1c5.2,1.5,52.4,9.6,69.4,9.6c30.4,0,37.5-6.5,51.7-6.5
			c11.5,0,28.8,6.5,47.7,6.5c24.2,0,67.8-7.7,72.7-9.3c1.8-0.6,3.2-2.2,3.2-4.1V7c0-2.4-1.9-4.3-4.3-4.3H5.3
			C3.5,2.6,2.1,4.1,2.1,5.8z"/>
		<path class="st23" d="M2.1,5.9v149.4c0,1.5,1.1,2.7,2.5,3.1c5,1.4,53.1,9.3,69.5,9.3c29.8,0,37.4-6.3,51.5-6.3
			c11.5,0,29,6.3,47.6,6.3c23.4,0,68-7.5,72.7-9c1.8-0.6,3.2-2.1,3.2-4.1V7c0-2.4-1.9-4.3-4.3-4.3H5.3C3.6,2.7,2.1,4.1,2.1,5.9z"/>
		<path class="st24" d="M2.2,6v149.3c0,1.5,1.1,2.7,2.5,3.1c4.9,1.4,53.7,9,69.6,9c29.1,0,37.3-6.1,51.4-6.1
			c11.5,0,29.1,6.1,47.5,6.1c22.6,0,68.2-7.2,72.7-8.7c1.8-0.6,3.2-2.1,3.2-4.1V7.1c0-2.4-1.9-4.3-4.3-4.3H5.4
			C3.6,2.8,2.2,4.2,2.2,6z"/>
		<path class="st25" d="M2.2,6v149.2c0,1.5,1.1,2.7,2.5,3.1c4.7,1.3,54.4,8.7,69.7,8.7c28.5,0,37.3-5.9,51.2-5.9
			c11.5,0,29.3,5.9,47.4,5.9c21.8,0,68.4-7,72.7-8.4c1.8-0.6,3.2-2.1,3.2-4.1V7.1c0-2.4-1.9-4.3-4.3-4.3H5.5C3.7,2.8,2.2,4.3,2.2,6z
			"/>
		<path class="st26" d="M2.3,6.1v149.1c0,1.5,1.1,2.7,2.5,3c4.5,1.2,55,8.3,69.8,8.3c27.9,0,37.2-5.6,51.1-5.6
			c11.5,0,29.5,5.6,47.3,5.6c21,0,68.5-6.7,72.7-8.1c1.8-0.6,3.2-2.1,3.2-4V7.2c0-2.4-1.9-4.3-4.3-4.3H5.5C3.7,2.9,2.3,4.3,2.3,6.1z
			"/>
		<path class="st27" d="M2.4,6.2v149c0,1.5,1.1,2.7,2.5,3c4.4,1.2,55.6,8,69.8,8c27.3,0,37.1-5.4,50.9-5.4c11.5,0,29.6,5.4,47.2,5.4
			c20.2,0,68.7-6.5,72.7-7.8c1.8-0.6,3.3-2.1,3.3-4V7.3c0-2.4-1.9-4.3-4.3-4.3H5.6C3.8,3,2.4,4.4,2.4,6.2z"/>
		<path class="st28" d="M2.4,6.2v148.9c0,1.5,1.1,2.6,2.5,3c4.2,1.1,56.3,7.7,69.9,7.7c26.7,0,37.1-5.2,50.8-5.2
			c11.5,0,29.8,5.2,47.1,5.2c19.3,0,68.9-6.3,72.8-7.5c1.8-0.6,3.3-2,3.3-4V7.3c0-2.4-1.9-4.3-4.3-4.3H5.6C3.8,3,2.4,4.5,2.4,6.2z"
			/>
		<path class="st29" d="M2.5,6.3v148.8c0,1.5,1.1,2.6,2.5,3c4,1,56.9,7.4,70,7.4c26,0,37-5,50.6-5c11.5,0,29.9,5,47,5
			c18.5,0,69-6,72.8-7.1c1.8-0.6,3.3-2,3.3-4V7.4c0-2.4-1.9-4.3-4.3-4.3H5.7C3.9,3.1,2.5,4.5,2.5,6.3z"/>
		<path class="st30" d="M2.5,6.4v148.7c0,1.5,1.1,2.6,2.6,3c3.9,1,57.6,7,70.1,7c25.4,0,36.9-4.8,50.5-4.8c11.4,0,30.1,4.8,46.9,4.8
			c17.7,0,69.2-5.8,72.8-6.8c1.8-0.6,3.3-2,3.3-4V7.4c0-2.4-1.9-4.3-4.3-4.3H5.7C4,3.1,2.5,4.6,2.5,6.4z"/>
		<path class="st31" d="M2.6,6.4V155c0,1.5,1.1,2.6,2.6,3c3.7,0.9,58.2,6.7,70.2,6.7c24.8,0,36.8-4.6,50.3-4.6
			c11.4,0,30.3,4.6,46.8,4.6c16.9,0,69.4-5.5,72.8-6.5c1.8-0.5,3.3-2,3.3-3.9V7.5c0-2.4-1.9-4.3-4.3-4.3H5.8C4,3.2,2.6,4.6,2.6,6.4z
			"/>
		<path class="st32" d="M2.6,6.5V155c0,1.5,1.1,2.6,2.6,3c3.5,0.9,58.9,6.4,70.2,6.4c24.2,0,36.8-4.3,50.2-4.3
			c11.4,0,30.4,4.3,46.7,4.3c16.1,0,69.5-5.3,72.8-6.2c1.8-0.5,3.3-2,3.3-3.9V7.6c0-2.4-1.9-4.3-4.3-4.3H5.8
			C4.1,3.3,2.6,4.7,2.6,6.5z"/>
		<path class="st33" d="M2.7,6.6V155c0,1.5,1.1,2.6,2.6,2.9c3.3,0.8,59.5,6.1,70.3,6.1c23.6,0,36.7-4.1,50-4.1
			c11.4,0,30.6,4.1,46.6,4.1c15.3,0,69.7-5,72.8-5.9c1.8-0.5,3.3-1.9,3.3-3.9V7.6c0-2.4-1.9-4.3-4.3-4.3H5.9
			C4.1,3.3,2.7,4.8,2.7,6.6z"/>
		<path class="st34" d="M2.7,6.6v148.3c0,1.5,1.1,2.6,2.6,2.9c3.2,0.8,60.2,5.8,70.4,5.8c22.9,0,36.6-3.9,49.9-3.9
			c11.4,0,30.7,3.9,46.5,3.9c14.5,0,69.9-4.8,72.8-5.6c1.8-0.5,3.3-1.9,3.3-3.9V7.7c0-2.4-1.9-4.3-4.3-4.3H6
			C4.2,3.4,2.7,4.8,2.7,6.6z"/>
		<path class="st35" d="M2.8,6.7v148.2c0,1.5,1.1,2.6,2.6,2.9c3,0.7,60.8,5.4,70.5,5.4c22.3,0,36.6-3.7,49.7-3.7
			c11.4,0,30.9,3.7,46.4,3.7c13.7,0,70.1-4.5,72.8-5.3c1.9-0.5,3.3-1.9,3.3-3.9V7.7c0-2.4-1.9-4.3-4.3-4.3H6
			C4.2,3.5,2.8,4.9,2.8,6.7z"/>
		<path class="st36" d="M2.8,6.7v148.1c0,1.5,1.2,2.6,2.6,2.9c2.8,0.7,61.5,5.1,70.6,5.1c21.7,0,36.5-3.5,49.6-3.5
			c11.4,0,31.1,3.5,46.4,3.5c12.9,0,70.2-4.3,72.9-5c1.9-0.5,3.4-1.9,3.4-3.8V7.8c0-2.4-1.9-4.3-4.3-4.3H6.1C4.3,3.5,2.8,5,2.8,6.7z
			"/>
		<path class="st37" d="M2.9,6.8v148c0,1.5,1.2,2.6,2.6,2.9c2.6,0.6,62.1,4.8,70.6,4.8c21.1,0,36.4-3.3,49.4-3.3
			c11.4,0,31.2,3.3,46.3,3.3c12.1,0,70.4-4,72.9-4.7c1.9-0.5,3.4-1.9,3.4-3.8V7.9c0-2.4-1.9-4.3-4.3-4.3H6.1C4.3,3.6,2.9,5,2.9,6.8z
			"/>
		<path class="st38" d="M3,6.9v147.9c0,1.5,1.2,2.6,2.6,2.9c2.5,0.6,62.8,4.5,70.7,4.5c20.5,0,36.3-3,49.3-3c11.4,0,31.4,3,46.2,3
			c11.3,0,70.6-3.7,72.9-4.3c1.9-0.5,3.4-1.9,3.4-3.8V7.9c0-2.4-1.9-4.3-4.3-4.3H6.2C4.4,3.7,3,5.1,3,6.9z"/>
		<path class="st39" d="M3,6.9v147.8c0,1.5,1.2,2.5,2.6,2.9c2.3,0.5,63.4,4.2,70.8,4.2c19.8,0,36.3-2.8,49.1-2.8
			c11.4,0,31.6,2.8,46.1,2.8c10.5,0,70.8-3.5,72.9-4c1.9-0.5,3.4-1.8,3.4-3.8V8c0-2.4-1.9-4.3-4.3-4.3H6.2C4.5,3.7,3,5.2,3,6.9z"/>
		<path class="st40" d="M3.1,7v147.7c0,1.5,1.2,2.5,2.6,2.9c2.1,0.5,64.1,3.8,70.9,3.8c19.2,0,36.2-2.6,48.9-2.6
			c11.3,0,31.7,2.6,46,2.6c9.7,0,70.9-3.2,72.9-3.7c1.9-0.5,3.4-1.8,3.4-3.8V8c0-2.4-1.9-4.3-4.3-4.3H6.3C4.5,3.8,3.1,5.2,3.1,7z"/>
		<path class="st41" d="M3.1,7.1v147.6c0,1.5,1.2,2.5,2.6,2.8c1.9,0.4,64.7,3.5,71,3.5c18.6,0,36.1-2.4,48.8-2.4
			c11.3,0,31.9,2.4,45.9,2.4c8.9,0,71.1-3,72.9-3.4c1.9-0.5,3.4-1.8,3.4-3.7V8.1c0-2.4-1.9-4.3-4.3-4.3H6.3C4.6,3.8,3.1,5.3,3.1,7.1
			z"/>
		<path class="st42" d="M3.2,7.1v147.5c0,1.5,1.2,2.5,2.6,2.8c1.8,0.4,65.4,3.2,71,3.2c18,0,36.1-2.2,48.6-2.2
			c11.3,0,32,2.2,45.8,2.2c8.1,0,71.3-2.7,72.9-3.1c1.9-0.5,3.4-1.8,3.4-3.7V8.2c0-2.4-1.9-4.3-4.3-4.3H6.4C4.6,3.9,3.2,5.4,3.2,7.1
			z"/>
		<path class="st43" d="M3.2,7.2v147.4c0,1.5,1.2,2.5,2.6,2.8c1.6,0.3,66,2.9,71.1,2.9c17.4,0,36-2,48.5-2c11.3,0,32.2,2,45.7,2
			c7.3,0,71.5-2.4,73-2.8c1.9-0.5,3.4-1.8,3.4-3.7V8.2c0-2.3-1.9-4.3-4.3-4.3H6.5C4.7,4,3.2,5.4,3.2,7.2z"/>
		<path class="st44" d="M3.3,7.3v147.3c0,1.5,1.2,2.5,2.6,2.8c1.4,0.3,66.7,2.6,71.2,2.6c16.7,0,35.9-1.7,48.3-1.7
			c11.3,0,32.4,1.7,45.6,1.7c6.4,0,71.6-2.2,73-2.5c1.9-0.4,3.4-1.7,3.4-3.7V8.3c0-2.3-1.9-4.3-4.3-4.3H6.5C4.7,4,3.3,5.5,3.3,7.3z"
			/>
		<path class="st45" d="M3.3,7.3v147.2c0,1.5,1.2,2.5,2.6,2.8c1.2,0.3,67.3,2.2,71.3,2.2c16.1,0,35.8-1.5,48.2-1.5
			c11.3,0,32.5,1.5,45.5,1.5c5.6,0,71.9-1.7,73-2.2c1.9-0.1,3.5-1.7,3.5-3.7V8.3c0-2.3-1.9-4.2-4.2-4.2H6.6C4.8,4.1,3.3,5.5,3.3,7.3
			z"/>
		<path class="st46" d="M3.4,7.4v147.1c0,1.5,1.2,2.5,2.6,2.8c1.1,0.2,68,1.9,71.4,1.9c15.5,0,35.8-1.3,48-1.3
			c11.3,0,32.7,1.3,45.4,1.3c4.8,0,72.1-1.5,73-1.9c1.9-0.1,3.5-1.7,3.5-3.6V8.4c0-2.3-1.9-4.2-4.2-4.2H6.6C4.8,4.2,3.4,5.6,3.4,7.4
			z"/>
		<path class="st47" d="M3.4,7.5v147c0,1.5,1.2,2.5,2.7,2.8c0.9,0.2,68.6,1.6,71.4,1.6c14.9,0,35.7-1.1,47.9-1.1
			c11.3,0,32.8,1.1,45.3,1.1c4,0,72.2-1.2,73-1.6c1.9-0.1,3.5-1.7,3.5-3.6V8.5c0-2.3-1.9-4.2-4.2-4.2H6.7C4.9,4.2,3.4,5.7,3.4,7.5z"
			/>
		<path class="st48" d="M3.5,7.5v146.9c0,1.5,1.2,2.5,2.7,2.7c0.7,0.1,69.3,1.3,71.5,1.3c14.3,0,35.6-0.9,47.7-0.9
			c11.3,0,33,0.9,45.2,0.9c3.2,0,72.4-1,73-1.2c1.9-0.1,3.5-1.7,3.5-3.6V8.5c0-2.3-1.9-4.2-4.2-4.2H6.7C4.9,4.3,3.5,5.7,3.5,7.5z"/>
		<path class="st49" d="M3.6,7.6v146.8c0,1.5,1.2,2.5,2.7,2.7c0.5,0.1,69.9,1,71.6,1c13.6,0,35.6-0.7,47.6-0.7
			c11.2,0,33.2,0.7,45.1,0.7c2.4,0,72.6-0.7,73-0.9c1.9,0,3.5-1.6,3.5-3.6V8.6c0-2.3-1.9-4.2-4.2-4.2H6.8C5,4.4,3.6,5.8,3.6,7.6z"/>
		<path class="st50" d="M3.6,7.7v146.7c0,1.5,1.2,2.4,2.7,2.7c0.4,0.1,70.6,0.6,71.7,0.6c13,0,35.5-0.4,47.4-0.4
			c11.2,0,33.3,0.4,45,0.4c1.6,0,72.7-0.5,73-0.6c1.9,0,3.5-1.6,3.5-3.6V8.6c0-2.3-1.9-4.2-4.2-4.2H6.8C5.1,4.4,3.6,5.9,3.6,7.7z"/>
		<path class="st51" d="M3.7,7.7v146.6c0,1.5,1.2,2.4,2.7,2.7c0.2,0,71.2,0.3,71.8,0.3c12.4,0,35.4-0.2,47.3-0.2
			c11.2,0,33.5,0.2,44.9,0.2c0.8,0,72.9-0.2,73.1-0.3c1.9,0,3.5-1.6,3.5-3.5V8.7c0-2.3-1.9-4.2-4.2-4.2H6.9C5.1,4.5,3.7,5.9,3.7,7.7
			z"/>
		<path class="st52" d="M3.7,7.8v146.5c0,1.5,1.2,2.7,2.7,2.7h71.8c11.8,0,35.3,0,47.1,0c11.2,0,33.6,0,44.9,0h73.1
			c1.9,0,3.5-1.6,3.5-3.5V8.8c0-2.3-1.9-4.2-4.2-4.2H7C5.2,4.5,3.7,6,3.7,7.8z"/>
	</g>
	<path class="st53" d="M244.8,3.5H135.2c-0.1-0.5-0.6-0.9-1.2-0.9h-17.3c-0.6,0-1.1,0.4-1.2,0.9H5.9C4,3.5,2.5,5,2.5,6.9v147.6
		c0,1.9,1.5,3.4,3.4,3.4h109.6c0.2,0.5,0.6,0.8,1.2,0.8H134c0.5,0,1-0.3,1.2-0.8h109.6c1.9,0,3.4-1.5,3.4-3.4V6.9
		C248.2,5,246.7,3.5,244.8,3.5z"/>
	<path class="st54" d="M120.4,3.7c0,0,2.2,1.4,2.9,2.2c0.6,0.8-4.2,0.7-4.2,0.7L120.4,3.7z"/>
	<g>
		<rect x="5.6" y="3.7" class="st55" width="240.9" height="153.6"/>
		<rect x="5.6" y="3.7" class="st56" width="240.8" height="153.5"/>
		<rect x="5.7" y="3.8" class="st57" width="240.7" height="153.4"/>
		<rect x="5.7" y="3.8" class="st58" width="240.5" height="153.3"/>
		<rect x="5.8" y="3.9" class="st59" width="240.4" height="153.2"/>
		<rect x="5.8" y="4" class="st60" width="240.3" height="153.1"/>
		<rect x="5.9" y="4" class="st61" width="240.1" height="153"/>
		<rect x="5.9" y="4.1" class="st62" width="240" height="152.9"/>
		<rect x="6" y="4.2" class="st63" width="239.9" height="152.8"/>
		<rect x="6" y="4.2" class="st64" width="239.8" height="152.7"/>
		<rect x="6.1" y="4.3" class="st65" width="239.6" height="152.6"/>
		<rect x="6.1" y="4.3" class="st66" width="239.5" height="152.5"/>
		<rect x="6.2" y="4.4" class="st67" width="239.4" height="152.4"/>
		<rect x="6.3" y="4.5" class="st68" width="239.2" height="152.3"/>
		<rect x="6.3" y="4.5" class="st69" width="239.1" height="152.2"/>
		<rect x="6.4" y="4.6" class="st70" width="239" height="152.1"/>
		<rect x="6.4" y="4.7" class="st71" width="238.8" height="152"/>
		<rect x="6.5" y="4.7" class="st72" width="238.7" height="151.9"/>
		<rect x="6.5" y="4.8" class="st73" width="238.6" height="151.8"/>
		<rect x="6.6" y="4.8" class="st74" width="238.4" height="151.7"/>
		<rect x="6.6" y="4.9" class="st75" width="238.3" height="151.6"/>
		<rect x="6.7" y="5" class="st76" width="238.2" height="151.5"/>
		<rect x="6.7" y="5" class="st77" width="238.1" height="151.4"/>
		<rect x="6.8" y="5.1" class="st78" width="237.9" height="151.4"/>
		<rect x="6.8" y="5.1" class="st79" width="237.8" height="151.3"/>
		<rect x="6.9" y="5.2" class="st80" width="237.7" height="151.2"/>
		<rect x="6.9" y="5.3" class="st81" width="237.5" height="151.1"/>
		<rect x="7" y="5.3" class="st82" width="237.4" height="151"/>
		<rect x="7" y="5.4" class="st83" width="237.3" height="150.9"/>
		<rect x="7.1" y="5.5" class="st84" width="237.1" height="150.8"/>
		<rect x="7.1" y="5.5" class="st85" width="237" height="150.7"/>
		<rect x="7.2" y="5.6" class="st86" width="236.9" height="150.6"/>
		<rect x="7.3" y="5.6" class="st87" width="236.8" height="150.5"/>
		<rect x="7.3" y="5.7" class="st88" width="236.6" height="150.4"/>
		<rect x="7.4" y="5.8" class="st89" width="236.5" height="150.3"/>
		<rect x="7.4" y="5.8" class="st90" width="236.4" height="150.2"/>
		<rect x="7.5" y="5.9" class="st91" width="236.2" height="150.1"/>
		<rect x="7.5" y="6" class="st92" width="236.1" height="150"/>
		<rect x="7.6" y="6" class="st93" width="236" height="149.9"/>
		<rect x="7.6" y="6.1" class="st94" width="235.8" height="149.8"/>
		<rect x="7.7" y="6.1" class="st95" width="235.7" height="149.7"/>
		<rect x="7.7" y="6.2" class="st96" width="235.6" height="149.6"/>
		<rect x="7.8" y="6.3" class="st97" width="235.5" height="149.5"/>
		<rect x="7.8" y="6.3" class="st98" width="235.3" height="149.4"/>
		<rect x="7.9" y="6.4" class="st99" width="235.2" height="149.3"/>
		<rect x="7.9" y="6.4" class="st100" width="235.1" height="149.3"/>
		<rect x="8" y="6.5" class="st101" width="234.9" height="149.2"/>
		<rect x="8" y="6.6" class="st102" width="234.8" height="149.1"/>
		<rect x="8.1" y="6.6" class="st103" width="234.7" height="149"/>
		<rect x="8.1" y="6.7" class="st104" width="234.5" height="148.9"/>
		<rect x="8.2" y="6.8" class="st105" width="234.4" height="148.8"/>
		<rect x="8.2" y="6.8" width="234.3" height="148.7"/>
	</g>
	<g>
		<linearGradient id="SVGID_1_" gradientUnits="userSpaceOnUse" x1="7.6668" y1="80.6132" x2="125.3674" y2="80.6132">
			<stop  offset="0" style="stop-color:#EDEDED"/>
			<stop  offset="2.263444e-03" style="stop-color:#E9E9E9"/>
			<stop  offset="4.607718e-03" style="stop-color:#DDDDDD"/>
			<stop  offset="6.980777e-03" style="stop-color:#C8C8C8"/>
			<stop  offset="8.622509e-03" style="stop-color:#B5B5B5"/>
			<stop  offset="0.1854" style="stop-color:#AFAFAF"/>
			<stop  offset="0.4196" style="stop-color:#9E9E9E"/>
			<stop  offset="0.685" style="stop-color:#838383"/>
			<stop  offset="0.7151" style="stop-color:#808080"/>
			<stop  offset="1" style="stop-color:#4D4D4D"/>
		</linearGradient>
		<rect x="7.7" y="5.4" class="st106" width="117.7" height="150.5"/>
		
			<linearGradient id="SVGID_00000089551828327683569220000008775985751179500962_" gradientUnits="userSpaceOnUse" x1="8.5106" y1="80.6132" x2="125.3674" y2="80.6132">
			<stop  offset="0" style="stop-color:#EDEDED"/>
			<stop  offset="2.263444e-03" style="stop-color:#E9E9E9"/>
			<stop  offset="4.607718e-03" style="stop-color:#DDDDDD"/>
			<stop  offset="6.980777e-03" style="stop-color:#C8C8C8"/>
			<stop  offset="8.622509e-03" style="stop-color:#B5B5B5"/>
			<stop  offset="0.1854" style="stop-color:#AFAFAF"/>
			<stop  offset="0.4196" style="stop-color:#9E9E9E"/>
			<stop  offset="0.685" style="stop-color:#838383"/>
			<stop  offset="0.7151" style="stop-color:#808080"/>
			<stop  offset="1" style="stop-color:#4D4D4D"/>
		</linearGradient>
		
			<rect x="8.5" y="5.4" style="fill:url(#SVGID_00000089551828327683569220000008775985751179500962_);" width="116.9" height="150.5"/>
		
			<linearGradient id="SVGID_00000066483389969710232830000009877261791777505950_" gradientUnits="userSpaceOnUse" x1="9.1666" y1="80.6132" x2="125.3674" y2="80.6132">
			<stop  offset="0" style="stop-color:#EDEDED"/>
			<stop  offset="2.263444e-03" style="stop-color:#E9E9E9"/>
			<stop  offset="4.607718e-03" style="stop-color:#DDDDDD"/>
			<stop  offset="6.980777e-03" style="stop-color:#C8C8C8"/>
			<stop  offset="8.622509e-03" style="stop-color:#B5B5B5"/>
			<stop  offset="0.1854" style="stop-color:#AFAFAF"/>
			<stop  offset="0.4196" style="stop-color:#9E9E9E"/>
			<stop  offset="0.685" style="stop-color:#838383"/>
			<stop  offset="0.7151" style="stop-color:#808080"/>
			<stop  offset="1" style="stop-color:#4D4D4D"/>
		</linearGradient>
		
			<rect x="9.2" y="5.4" style="fill:url(#SVGID_00000066483389969710232830000009877261791777505950_);" width="116.2" height="150.5"/>
		
			<linearGradient id="SVGID_00000077307338208083233840000011883192659348002177_" gradientUnits="userSpaceOnUse" x1="9.6763" y1="80.6132" x2="125.3674" y2="80.6132">
			<stop  offset="0" style="stop-color:#EDEDED"/>
			<stop  offset="2.263444e-03" style="stop-color:#E9E9E9"/>
			<stop  offset="4.607718e-03" style="stop-color:#DDDDDD"/>
			<stop  offset="6.980777e-03" style="stop-color:#C8C8C8"/>
			<stop  offset="8.622509e-03" style="stop-color:#B5B5B5"/>
			<stop  offset="0.1854" style="stop-color:#AFAFAF"/>
			<stop  offset="0.4196" style="stop-color:#9E9E9E"/>
			<stop  offset="0.685" style="stop-color:#838383"/>
			<stop  offset="0.7151" style="stop-color:#808080"/>
			<stop  offset="1" style="stop-color:#4D4D4D"/>
		</linearGradient>
		
			<rect x="9.7" y="5.4" style="fill:url(#SVGID_00000077307338208083233840000011883192659348002177_);" width="115.7" height="150.5"/>
		
			<linearGradient id="SVGID_00000119824030254877663080000000536156521496025788_" gradientUnits="userSpaceOnUse" x1="10.3316" y1="80.6132" x2="125.3674" y2="80.6132">
			<stop  offset="0" style="stop-color:#EDEDED"/>
			<stop  offset="2.263444e-03" style="stop-color:#E9E9E9"/>
			<stop  offset="4.607718e-03" style="stop-color:#DDDDDD"/>
			<stop  offset="6.980777e-03" style="stop-color:#C8C8C8"/>
			<stop  offset="8.622509e-03" style="stop-color:#B5B5B5"/>
			<stop  offset="0.1854" style="stop-color:#AFAFAF"/>
			<stop  offset="0.4196" style="stop-color:#9E9E9E"/>
			<stop  offset="0.685" style="stop-color:#838383"/>
			<stop  offset="0.7151" style="stop-color:#808080"/>
			<stop  offset="1" style="stop-color:#4D4D4D"/>
		</linearGradient>
		
			<rect x="10.3" y="5.4" style="fill:url(#SVGID_00000119824030254877663080000000536156521496025788_);" width="115" height="150.5"/>
		
			<linearGradient id="SVGID_00000003794246010084990400000004695459849382714266_" gradientUnits="userSpaceOnUse" x1="11.0602" y1="80.6132" x2="125.3674" y2="80.6132">
			<stop  offset="0" style="stop-color:#EDEDED"/>
			<stop  offset="2.263444e-03" style="stop-color:#E9E9E9"/>
			<stop  offset="4.607718e-03" style="stop-color:#DDDDDD"/>
			<stop  offset="6.980777e-03" style="stop-color:#C8C8C8"/>
			<stop  offset="8.622509e-03" style="stop-color:#B5B5B5"/>
			<stop  offset="0.1854" style="stop-color:#AFAFAF"/>
			<stop  offset="0.4196" style="stop-color:#9E9E9E"/>
			<stop  offset="0.685" style="stop-color:#838383"/>
			<stop  offset="0.7151" style="stop-color:#808080"/>
			<stop  offset="1" style="stop-color:#4D4D4D"/>
		</linearGradient>
		
			<rect x="11.1" y="5.4" style="fill:url(#SVGID_00000003794246010084990400000004695459849382714266_);" width="114.3" height="150.5"/>
		
			<linearGradient id="SVGID_00000014617897259510778820000009851756788591505804_" gradientUnits="userSpaceOnUse" x1="11.7887" y1="80.6132" x2="125.3674" y2="80.6132">
			<stop  offset="0" style="stop-color:#EDEDED"/>
			<stop  offset="2.263444e-03" style="stop-color:#E9E9E9"/>
			<stop  offset="4.607718e-03" style="stop-color:#DDDDDD"/>
			<stop  offset="6.980777e-03" style="stop-color:#C8C8C8"/>
			<stop  offset="8.622509e-03" style="stop-color:#B5B5B5"/>
			<stop  offset="0.1854" style="stop-color:#AFAFAF"/>
			<stop  offset="0.4196" style="stop-color:#9E9E9E"/>
			<stop  offset="0.685" style="stop-color:#838383"/>
			<stop  offset="0.7151" style="stop-color:#808080"/>
			<stop  offset="1" style="stop-color:#4D4D4D"/>
		</linearGradient>
		
			<rect x="11.8" y="5.4" style="fill:url(#SVGID_00000014617897259510778820000009851756788591505804_);" width="113.6" height="150.5"/>
		
			<linearGradient id="SVGID_00000023269204311383062240000012466377822381874343_" gradientUnits="userSpaceOnUse" x1="12.3715" y1="80.6132" x2="125.3674" y2="80.6132">
			<stop  offset="0" style="stop-color:#EDEDED"/>
			<stop  offset="2.263444e-03" style="stop-color:#E9E9E9"/>
			<stop  offset="4.607718e-03" style="stop-color:#DDDDDD"/>
			<stop  offset="6.980777e-03" style="stop-color:#C8C8C8"/>
			<stop  offset="8.622509e-03" style="stop-color:#B5B5B5"/>
			<stop  offset="0.1854" style="stop-color:#AFAFAF"/>
			<stop  offset="0.4196" style="stop-color:#9E9E9E"/>
			<stop  offset="0.685" style="stop-color:#838383"/>
			<stop  offset="0.7151" style="stop-color:#808080"/>
			<stop  offset="1" style="stop-color:#4D4D4D"/>
		</linearGradient>
		
			<rect x="12.4" y="5.4" style="fill:url(#SVGID_00000023269204311383062240000012466377822381874343_);" width="113" height="150.5"/>
		
			<linearGradient id="SVGID_00000041296665743417463200000013711825426332049306_" gradientUnits="userSpaceOnUse" x1="12.918" y1="80.6132" x2="125.3674" y2="80.6132">
			<stop  offset="0" style="stop-color:#EDEDED"/>
			<stop  offset="2.263444e-03" style="stop-color:#E9E9E9"/>
			<stop  offset="4.607718e-03" style="stop-color:#DDDDDD"/>
			<stop  offset="6.980777e-03" style="stop-color:#C8C8C8"/>
			<stop  offset="8.622509e-03" style="stop-color:#B5B5B5"/>
			<stop  offset="0.1854" style="stop-color:#AFAFAF"/>
			<stop  offset="0.4196" style="stop-color:#9E9E9E"/>
			<stop  offset="0.685" style="stop-color:#838383"/>
			<stop  offset="0.7151" style="stop-color:#808080"/>
			<stop  offset="1" style="stop-color:#4D4D4D"/>
		</linearGradient>
		
			<rect x="12.9" y="5.4" style="fill:url(#SVGID_00000041296665743417463200000013711825426332049306_);" width="112.4" height="150.5"/>
		
			<linearGradient id="SVGID_00000169548067045146562110000016778906128950011783_" gradientUnits="userSpaceOnUse" x1="13.5189" y1="80.6132" x2="125.3674" y2="80.6132">
			<stop  offset="0" style="stop-color:#EDEDED"/>
			<stop  offset="2.263444e-03" style="stop-color:#E9E9E9"/>
			<stop  offset="4.607718e-03" style="stop-color:#DDDDDD"/>
			<stop  offset="6.980777e-03" style="stop-color:#C8C8C8"/>
			<stop  offset="8.622509e-03" style="stop-color:#B5B5B5"/>
			<stop  offset="0.1854" style="stop-color:#AFAFAF"/>
			<stop  offset="0.4196" style="stop-color:#9E9E9E"/>
			<stop  offset="0.685" style="stop-color:#838383"/>
			<stop  offset="0.7151" style="stop-color:#808080"/>
			<stop  offset="1" style="stop-color:#4D4D4D"/>
		</linearGradient>
		
			<rect x="13.5" y="5.4" style="fill:url(#SVGID_00000169548067045146562110000016778906128950011783_);" width="111.8" height="150.5"/>
		
			<linearGradient id="SVGID_00000013161229786483403900000005660197523892578235_" gradientUnits="userSpaceOnUse" x1="13.9923" y1="80.6132" x2="125.3674" y2="80.6132">
			<stop  offset="0" style="stop-color:#EDEDED"/>
			<stop  offset="2.263444e-03" style="stop-color:#E9E9E9"/>
			<stop  offset="4.607718e-03" style="stop-color:#DDDDDD"/>
			<stop  offset="6.980777e-03" style="stop-color:#C8C8C8"/>
			<stop  offset="8.622509e-03" style="stop-color:#B5B5B5"/>
			<stop  offset="0.1854" style="stop-color:#AFAFAF"/>
			<stop  offset="0.4196" style="stop-color:#9E9E9E"/>
			<stop  offset="0.685" style="stop-color:#838383"/>
			<stop  offset="0.7151" style="stop-color:#808080"/>
			<stop  offset="1" style="stop-color:#4D4D4D"/>
		</linearGradient>
		
			<rect x="14" y="5.4" style="fill:url(#SVGID_00000013161229786483403900000005660197523892578235_);" width="111.4" height="150.5"/>
		
			<linearGradient id="SVGID_00000044137039787548634830000001700350795202076800_" gradientUnits="userSpaceOnUse" x1="14.4657" y1="80.6132" x2="125.3674" y2="80.6132">
			<stop  offset="0" style="stop-color:#EDEDED"/>
			<stop  offset="2.263444e-03" style="stop-color:#E9E9E9"/>
			<stop  offset="4.607718e-03" style="stop-color:#DDDDDD"/>
			<stop  offset="6.980777e-03" style="stop-color:#C8C8C8"/>
			<stop  offset="8.622509e-03" style="stop-color:#B5B5B5"/>
			<stop  offset="0.1854" style="stop-color:#AFAFAF"/>
			<stop  offset="0.4196" style="stop-color:#9E9E9E"/>
			<stop  offset="0.685" style="stop-color:#838383"/>
			<stop  offset="0.7151" style="stop-color:#808080"/>
			<stop  offset="1" style="stop-color:#4D4D4D"/>
		</linearGradient>
		
			<rect x="14.5" y="5.4" style="fill:url(#SVGID_00000044137039787548634830000001700350795202076800_);" width="110.9" height="150.5"/>
		
			<linearGradient id="SVGID_00000163031020443168313280000009479256695002836868_" gradientUnits="userSpaceOnUse" x1="14.7934" y1="80.6132" x2="125.3674" y2="80.6132">
			<stop  offset="0" style="stop-color:#EDEDED"/>
			<stop  offset="2.263444e-03" style="stop-color:#E9E9E9"/>
			<stop  offset="4.607718e-03" style="stop-color:#DDDDDD"/>
			<stop  offset="6.980777e-03" style="stop-color:#C8C8C8"/>
			<stop  offset="8.622509e-03" style="stop-color:#B5B5B5"/>
			<stop  offset="0.1854" style="stop-color:#AFAFAF"/>
			<stop  offset="0.4196" style="stop-color:#9E9E9E"/>
			<stop  offset="0.685" style="stop-color:#838383"/>
			<stop  offset="0.7151" style="stop-color:#808080"/>
			<stop  offset="1" style="stop-color:#4D4D4D"/>
		</linearGradient>
		
			<rect x="14.8" y="5.4" style="fill:url(#SVGID_00000163031020443168313280000009479256695002836868_);" width="110.6" height="150.5"/>
		
			<linearGradient id="SVGID_00000172433360836406910080000000615714927023812261_" gradientUnits="userSpaceOnUse" x1="-39.2821" y1="80.6132" x2="78.4184" y2="80.6132" gradientTransform="matrix(-1 0 0 1 203.8284 0)">
			<stop  offset="0" style="stop-color:#C7C7C7"/>
			<stop  offset="1.756917e-03" style="stop-color:#C3C3C3"/>
			<stop  offset="3.577325e-03" style="stop-color:#B6B6B6"/>
			<stop  offset="5.426114e-03" style="stop-color:#A2A2A2"/>
			<stop  offset="7.283468e-03" style="stop-color:#858585"/>
			<stop  offset="8.622509e-03" style="stop-color:#6B6B6B"/>
			<stop  offset="0.3326" style="stop-color:#717171"/>
			<stop  offset="0.7151" style="stop-color:#808080"/>
			<stop  offset="1" style="stop-color:#4D4D4D"/>
		</linearGradient>
		<polygon style="fill:url(#SVGID_00000172433360836406910080000000615714927023812261_);" points="243.1,155.9 125.4,155.9 
			125.4,5.4 243.1,5.4 		"/>
		
			<linearGradient id="SVGID_00000182491825728202519840000017020927046104484253_" gradientUnits="userSpaceOnUse" x1="-38.4384" y1="80.6132" x2="78.4184" y2="80.6132" gradientTransform="matrix(-1 0 0 1 203.8284 0)">
			<stop  offset="0" style="stop-color:#C7C7C7"/>
			<stop  offset="1.756917e-03" style="stop-color:#C3C3C3"/>
			<stop  offset="3.577325e-03" style="stop-color:#B6B6B6"/>
			<stop  offset="5.426114e-03" style="stop-color:#A2A2A2"/>
			<stop  offset="7.283468e-03" style="stop-color:#858585"/>
			<stop  offset="8.622509e-03" style="stop-color:#6B6B6B"/>
			<stop  offset="0.3326" style="stop-color:#717171"/>
			<stop  offset="0.7151" style="stop-color:#808080"/>
			<stop  offset="1" style="stop-color:#4D4D4D"/>
		</linearGradient>
		<polygon style="fill:url(#SVGID_00000182491825728202519840000017020927046104484253_);" points="242.3,155.9 125.4,155.9 
			125.4,5.4 242.3,5.4 		"/>
		
			<linearGradient id="SVGID_00000060745780407321909200000017287765883939401135_" gradientUnits="userSpaceOnUse" x1="-37.7829" y1="80.6132" x2="78.4184" y2="80.6132" gradientTransform="matrix(-1 0 0 1 203.8284 0)">
			<stop  offset="0" style="stop-color:#C7C7C7"/>
			<stop  offset="1.756917e-03" style="stop-color:#C3C3C3"/>
			<stop  offset="3.577325e-03" style="stop-color:#B6B6B6"/>
			<stop  offset="5.426114e-03" style="stop-color:#A2A2A2"/>
			<stop  offset="7.283468e-03" style="stop-color:#858585"/>
			<stop  offset="8.622509e-03" style="stop-color:#6B6B6B"/>
			<stop  offset="0.3326" style="stop-color:#717171"/>
			<stop  offset="0.7151" style="stop-color:#808080"/>
			<stop  offset="1" style="stop-color:#4D4D4D"/>
		</linearGradient>
		<polygon style="fill:url(#SVGID_00000060745780407321909200000017287765883939401135_);" points="241.6,155.9 125.4,155.9 
			125.4,5.4 241.6,5.4 		"/>
		
			<linearGradient id="SVGID_00000002373657057778466150000007421294640831071373_" gradientUnits="userSpaceOnUse" x1="-37.2727" y1="80.6132" x2="78.4184" y2="80.6132" gradientTransform="matrix(-1 0 0 1 203.8284 0)">
			<stop  offset="0" style="stop-color:#C7C7C7"/>
			<stop  offset="1.756917e-03" style="stop-color:#C3C3C3"/>
			<stop  offset="3.577325e-03" style="stop-color:#B6B6B6"/>
			<stop  offset="5.426114e-03" style="stop-color:#A2A2A2"/>
			<stop  offset="7.283468e-03" style="stop-color:#858585"/>
			<stop  offset="8.622509e-03" style="stop-color:#6B6B6B"/>
			<stop  offset="0.3326" style="stop-color:#717171"/>
			<stop  offset="0.7151" style="stop-color:#808080"/>
			<stop  offset="1" style="stop-color:#4D4D4D"/>
		</linearGradient>
		<polygon style="fill:url(#SVGID_00000002373657057778466150000007421294640831071373_);" points="241.1,155.9 125.4,155.9 
			125.4,5.4 241.1,5.4 		"/>
		
			<linearGradient id="SVGID_00000113341486815216434220000010067735517770763675_" gradientUnits="userSpaceOnUse" x1="-36.6173" y1="80.6132" x2="78.4184" y2="80.6132" gradientTransform="matrix(-1 0 0 1 203.8284 0)">
			<stop  offset="0" style="stop-color:#C7C7C7"/>
			<stop  offset="1.756917e-03" style="stop-color:#C3C3C3"/>
			<stop  offset="3.577325e-03" style="stop-color:#B6B6B6"/>
			<stop  offset="5.426114e-03" style="stop-color:#A2A2A2"/>
			<stop  offset="7.283468e-03" style="stop-color:#858585"/>
			<stop  offset="8.622509e-03" style="stop-color:#6B6B6B"/>
			<stop  offset="0.3326" style="stop-color:#717171"/>
			<stop  offset="0.7151" style="stop-color:#808080"/>
			<stop  offset="1" style="stop-color:#4D4D4D"/>
		</linearGradient>
		<polygon style="fill:url(#SVGID_00000113341486815216434220000010067735517770763675_);" points="240.4,155.9 125.4,155.9 
			125.4,5.4 240.4,5.4 		"/>
		
			<linearGradient id="SVGID_00000113322490448568679390000006904598026217348753_" gradientUnits="userSpaceOnUse" x1="-35.8888" y1="80.6132" x2="78.4184" y2="80.6132" gradientTransform="matrix(-1 0 0 1 203.8284 0)">
			<stop  offset="0" style="stop-color:#C7C7C7"/>
			<stop  offset="1.756917e-03" style="stop-color:#C3C3C3"/>
			<stop  offset="3.577325e-03" style="stop-color:#B6B6B6"/>
			<stop  offset="5.426114e-03" style="stop-color:#A2A2A2"/>
			<stop  offset="7.283468e-03" style="stop-color:#858585"/>
			<stop  offset="8.622509e-03" style="stop-color:#6B6B6B"/>
			<stop  offset="0.3326" style="stop-color:#717171"/>
			<stop  offset="0.7151" style="stop-color:#808080"/>
			<stop  offset="1" style="stop-color:#4D4D4D"/>
		</linearGradient>
		<polygon style="fill:url(#SVGID_00000113322490448568679390000006904598026217348753_);" points="239.7,155.9 125.4,155.9 
			125.4,5.4 239.7,5.4 		"/>
		
			<linearGradient id="SVGID_00000158020089731486474120000006918898306963961511_" gradientUnits="userSpaceOnUse" x1="-35.1603" y1="80.6132" x2="78.4184" y2="80.6132" gradientTransform="matrix(-1 0 0 1 203.8284 0)">
			<stop  offset="0" style="stop-color:#C7C7C7"/>
			<stop  offset="1.756917e-03" style="stop-color:#C3C3C3"/>
			<stop  offset="3.577325e-03" style="stop-color:#B6B6B6"/>
			<stop  offset="5.426114e-03" style="stop-color:#A2A2A2"/>
			<stop  offset="7.283468e-03" style="stop-color:#858585"/>
			<stop  offset="8.622509e-03" style="stop-color:#6B6B6B"/>
			<stop  offset="0.3326" style="stop-color:#717171"/>
			<stop  offset="0.7151" style="stop-color:#808080"/>
			<stop  offset="1" style="stop-color:#4D4D4D"/>
		</linearGradient>
		<polygon style="fill:url(#SVGID_00000158020089731486474120000006918898306963961511_);" points="239,155.9 125.4,155.9 
			125.4,5.4 239,5.4 		"/>
		
			<linearGradient id="SVGID_00000031193140661298667930000001691400957708472501_" gradientUnits="userSpaceOnUse" x1="-34.5775" y1="80.6132" x2="78.4184" y2="80.6132" gradientTransform="matrix(-1 0 0 1 203.8284 0)">
			<stop  offset="0" style="stop-color:#C7C7C7"/>
			<stop  offset="1.756917e-03" style="stop-color:#C3C3C3"/>
			<stop  offset="3.577325e-03" style="stop-color:#B6B6B6"/>
			<stop  offset="5.426114e-03" style="stop-color:#A2A2A2"/>
			<stop  offset="7.283468e-03" style="stop-color:#858585"/>
			<stop  offset="8.622509e-03" style="stop-color:#6B6B6B"/>
			<stop  offset="0.3326" style="stop-color:#717171"/>
			<stop  offset="0.7151" style="stop-color:#808080"/>
			<stop  offset="1" style="stop-color:#4D4D4D"/>
		</linearGradient>
		<polygon style="fill:url(#SVGID_00000031193140661298667930000001691400957708472501_);" points="238.4,155.9 125.4,155.9 
			125.4,5.4 238.4,5.4 		"/>
		
			<linearGradient id="SVGID_00000090254731428763480330000009269131916483981975_" gradientUnits="userSpaceOnUse" x1="-34.0315" y1="80.6132" x2="78.4184" y2="80.6132" gradientTransform="matrix(-1 0 0 1 203.8284 0)">
			<stop  offset="0" style="stop-color:#C7C7C7"/>
			<stop  offset="1.756917e-03" style="stop-color:#C3C3C3"/>
			<stop  offset="3.577325e-03" style="stop-color:#B6B6B6"/>
			<stop  offset="5.426114e-03" style="stop-color:#A2A2A2"/>
			<stop  offset="7.283468e-03" style="stop-color:#858585"/>
			<stop  offset="8.622509e-03" style="stop-color:#6B6B6B"/>
			<stop  offset="0.3326" style="stop-color:#717171"/>
			<stop  offset="0.7151" style="stop-color:#808080"/>
			<stop  offset="1" style="stop-color:#4D4D4D"/>
		</linearGradient>
		<polygon style="fill:url(#SVGID_00000090254731428763480330000009269131916483981975_);" points="237.9,155.9 125.4,155.9 
			125.4,5.4 237.9,5.4 		"/>
		
			<linearGradient id="SVGID_00000099656960975739970010000017872846934220320661_" gradientUnits="userSpaceOnUse" x1="-33.4306" y1="80.6132" x2="78.4184" y2="80.6132" gradientTransform="matrix(-1 0 0 1 203.8284 0)">
			<stop  offset="0" style="stop-color:#C7C7C7"/>
			<stop  offset="1.756917e-03" style="stop-color:#C3C3C3"/>
			<stop  offset="3.577325e-03" style="stop-color:#B6B6B6"/>
			<stop  offset="5.426114e-03" style="stop-color:#A2A2A2"/>
			<stop  offset="7.283468e-03" style="stop-color:#858585"/>
			<stop  offset="8.622509e-03" style="stop-color:#6B6B6B"/>
			<stop  offset="0.3326" style="stop-color:#717171"/>
			<stop  offset="0.7151" style="stop-color:#808080"/>
			<stop  offset="1" style="stop-color:#4D4D4D"/>
		</linearGradient>
		<polygon style="fill:url(#SVGID_00000099656960975739970010000017872846934220320661_);" points="237.3,155.9 125.4,155.9 
			125.4,5.4 237.3,5.4 		"/>
		
			<linearGradient id="SVGID_00000124859660537652315540000004450716049244186508_" gradientUnits="userSpaceOnUse" x1="-32.9566" y1="80.6132" x2="78.4184" y2="80.6132" gradientTransform="matrix(-1 0 0 1 203.8284 0)">
			<stop  offset="0" style="stop-color:#C7C7C7"/>
			<stop  offset="1.756917e-03" style="stop-color:#C3C3C3"/>
			<stop  offset="3.577325e-03" style="stop-color:#B6B6B6"/>
			<stop  offset="5.426114e-03" style="stop-color:#A2A2A2"/>
			<stop  offset="7.283468e-03" style="stop-color:#858585"/>
			<stop  offset="8.622509e-03" style="stop-color:#6B6B6B"/>
			<stop  offset="0.3326" style="stop-color:#717171"/>
			<stop  offset="0.7151" style="stop-color:#808080"/>
			<stop  offset="1" style="stop-color:#4D4D4D"/>
		</linearGradient>
		<polygon style="fill:url(#SVGID_00000124859660537652315540000004450716049244186508_);" points="236.8,155.9 125.4,155.9 
			125.4,5.4 236.8,5.4 		"/>
		
			<linearGradient id="SVGID_00000025436888284447624190000004717630909986028459_" gradientUnits="userSpaceOnUse" x1="-32.4832" y1="80.6132" x2="78.4184" y2="80.6132" gradientTransform="matrix(-1 0 0 1 203.8284 0)">
			<stop  offset="0" style="stop-color:#C7C7C7"/>
			<stop  offset="1.756917e-03" style="stop-color:#C3C3C3"/>
			<stop  offset="3.577325e-03" style="stop-color:#B6B6B6"/>
			<stop  offset="5.426114e-03" style="stop-color:#A2A2A2"/>
			<stop  offset="7.283468e-03" style="stop-color:#858585"/>
			<stop  offset="8.622509e-03" style="stop-color:#6B6B6B"/>
			<stop  offset="0.3326" style="stop-color:#717171"/>
			<stop  offset="0.7151" style="stop-color:#808080"/>
			<stop  offset="1" style="stop-color:#4D4D4D"/>
		</linearGradient>
		<polygon style="fill:url(#SVGID_00000025436888284447624190000004717630909986028459_);" points="236.3,155.9 125.4,155.9 
			125.4,5.4 236.3,5.4 		"/>
		
			<linearGradient id="SVGID_00000130643535133929098970000017039250751864746172_" gradientUnits="userSpaceOnUse" x1="-32.1555" y1="80.6132" x2="78.4184" y2="80.6132" gradientTransform="matrix(-1 0 0 1 203.8284 0)">
			<stop  offset="0" style="stop-color:#C7C7C7"/>
			<stop  offset="1.756917e-03" style="stop-color:#C3C3C3"/>
			<stop  offset="3.577325e-03" style="stop-color:#B6B6B6"/>
			<stop  offset="5.426114e-03" style="stop-color:#A2A2A2"/>
			<stop  offset="7.283468e-03" style="stop-color:#858585"/>
			<stop  offset="8.622509e-03" style="stop-color:#6B6B6B"/>
			<stop  offset="0.3326" style="stop-color:#717171"/>
			<stop  offset="0.7151" style="stop-color:#808080"/>
			<stop  offset="1" style="stop-color:#4D4D4D"/>
		</linearGradient>
		<polygon style="fill:url(#SVGID_00000130643535133929098970000017039250751864746172_);" points="236,155.9 125.4,155.9 
			125.4,5.4 236,5.4 		"/>
	</g>
	
		<linearGradient id="SVGID_00000008853571865084323740000013754844076842105775_" gradientUnits="userSpaceOnUse" x1="15.1115" y1="80.262" x2="125.3674" y2="80.262">
		<stop  offset="0" style="stop-color:#F3F3F3"/>
		<stop  offset="0.2272" style="stop-color:#FFFFFF"/>
		<stop  offset="0.3921" style="stop-color:#F9F9F9"/>
		<stop  offset="0.6102" style="stop-color:#E8E8E8"/>
		<stop  offset="0.7151" style="stop-color:#DEDEDE"/>
		<stop  offset="0.8548" style="stop-color:#DBDBDB"/>
		<stop  offset="0.9527" style="stop-color:#C9C9C9"/>
		<stop  offset="0.9651" style="stop-color:#C5C5C5"/>
		<stop  offset="0.9763" style="stop-color:#BABABA"/>
		<stop  offset="0.9871" style="stop-color:#A8A8A8"/>
		<stop  offset="0.9976" style="stop-color:#8E8E8E"/>
		<stop  offset="1" style="stop-color:#878787"/>
	</linearGradient>
	<path style="fill:url(#SVGID_00000008853571865084323740000013754844076842105775_);" d="M15.1,155.9c0,0,46.4-0.9,61.9-0.9
		c12.1,0,48.4,0.9,48.4,0.9V5.4c0,0-32.1-0.7-42.9-0.7c-16.8,0-67.3,0.7-67.3,0.7V155.9z"/>
	
		<linearGradient id="SVGID_00000134938475051690502090000010828598288434071712_" gradientUnits="userSpaceOnUse" x1="-91.4239" y1="80.262" x2="18.8325" y2="80.262" gradientTransform="matrix(-1 0 0 1 144.1998 0)">
		<stop  offset="0" style="stop-color:#D6D6D6"/>
		<stop  offset="0.1935" style="stop-color:#F5F5F5"/>
		<stop  offset="0.5986" style="stop-color:#FFFFFF"/>
		<stop  offset="0.682" style="stop-color:#F9F9F9"/>
		<stop  offset="0.7965" style="stop-color:#E7E7E7"/>
		<stop  offset="0.8548" style="stop-color:#DBDBDB"/>
		<stop  offset="0.9313" style="stop-color:#D4D5D6"/>
		<stop  offset="0.9651" style="stop-color:#BBBBBC"/>
		<stop  offset="1" style="stop-color:#9C9C9C"/>
	</linearGradient>
	<path style="fill:url(#SVGID_00000134938475051690502090000010828598288434071712_);" d="M235.6,155.9c0,0-58.2-0.7-77.6-0.7
		c-8.2,0-32.6,0.7-32.6,0.7V5.4c0,0,23.2-0.7,30.9-0.7c19.8,0,79.4,0.7,79.4,0.7V155.9z"/>
	<g>
		<path class="st55" d="M121.4,4.5c-0.2,1.6-0.2,16.9-0.6,22.9c-0.4,6-1.6,23.3-1.9,28.5c-0.6,14.5-2,30.7-2,32.1
			c0,1.4-4.1-0.9-8.4-0.1c-1.5,0.3,3.9-18.3,4.1-22.6c0.3-4.2,1.4-28.9,1.6-32.1c0.2-3.2,1.8-26.7,2-27.8
			C116.4,4.3,121.5,3.3,121.4,4.5z"/>
		<path class="st56" d="M121.3,4.5c-0.2,1.6-0.2,16.9-0.7,22.9c-0.4,6-1.6,23.3-1.9,28.5c-0.6,14.3-2,30.6-2,32
			c0,1.4-4.1-0.9-8.3-0.1c-1.5,0.3,3.8-18.3,4.1-22.5c0.3-4.2,1.4-28.9,1.6-32.1c0.2-3.2,1.8-26.7,2-27.8
			C116.4,4.3,121.5,3.3,121.3,4.5z"/>
		<path class="st57" d="M121.3,4.5c-0.2,1.6-0.3,16.9-0.7,22.9c-0.4,6-1.6,23.3-1.9,28.5c-0.6,14.1-2,30.5-2,31.9
			c0,1.4-4.1-0.8-8.2-0.1c-1.5,0.3,3.7-18.2,4-22.5c0.3-4.2,1.4-28.9,1.6-32.1c0.2-3.2,1.8-26.7,2-27.8
			C116.3,4.3,121.4,3.3,121.3,4.5z"/>
		<path class="st58" d="M121.3,4.5c-0.2,1.5-0.3,16.9-0.7,22.9c-0.4,6-1.6,23.3-1.9,28.5c-0.6,13.9-1.9,30.4-1.9,31.9
			c0,1.4-4-0.8-8.1-0.1c-1.5,0.3,3.6-18.2,3.9-22.4c0.3-4.2,1.4-28.9,1.6-32.1c0.2-3.2,1.8-26.7,2-27.8
			C116.3,4.3,121.4,3.3,121.3,4.5z"/>
		<path class="st59" d="M121.2,4.5c-0.2,1.5-0.3,16.9-0.7,22.9c-0.4,6-1.6,23.3-1.9,28.5c-0.6,13.7-1.9,30.4-1.9,31.8
			c0,1.4-4-0.8-8-0.1c-1.5,0.3,3.6-18.1,3.8-22.3c0.3-4.2,1.4-28.9,1.6-32.1c0.2-3.2,1.8-26.7,2-27.8C116.3,4.3,121.4,3.3,121.2,4.5
			z"/>
		<path class="st60" d="M121.2,4.5c-0.2,1.5-0.4,16.9-0.8,22.9c-0.4,6-1.6,23.3-1.8,28.5c-0.6,13.5-1.9,30.3-1.9,31.8
			c0,1.4-4-0.8-8-0.1c-1.5,0.3,3.5-18,3.7-22.3c0.3-4.2,1.4-28.9,1.6-32.1c0.2-3.2,1.8-26.7,2-27.8C116.2,4.3,121.3,3.3,121.2,4.5z"
			/>
		<path class="st61" d="M121.2,4.5c-0.2,1.5-0.4,16.9-0.8,22.9c-0.4,6-1.6,23.2-1.8,28.4c-0.6,13.4-1.9,30.2-1.9,31.7
			c0,1.4-3.9-0.7-7.9-0.1c-1.5,0.3,3.4-18,3.7-22.2c0.3-4.2,1.4-28.9,1.6-32.1c0.2-3.2,1.8-26.7,2-27.8
			C116.2,4.3,121.3,3.3,121.2,4.5z"/>
		<path class="st62" d="M121.1,4.5c-0.2,1.5-0.4,16.9-0.8,22.9c-0.4,6-1.6,23.2-1.8,28.4c-0.5,13.2-1.8,30.1-1.9,31.7
			c0,1.4-3.9-0.7-7.8-0.1c-1.5,0.3,3.3-17.9,3.6-22.1c0.3-4.2,1.4-28.9,1.6-32.1c0.2-3.2,1.8-26.7,2-27.8
			C116.1,4.3,121.3,3.3,121.1,4.5z"/>
		<path class="st63" d="M121.1,4.5c-0.2,1.5-0.4,16.9-0.8,22.9c-0.4,6-1.6,23.2-1.8,28.4c-0.5,13-1.8,30.1-1.9,31.6
			c0,1.4-3.9-0.7-7.7-0.1c-1.5,0.3,3.2-17.9,3.5-22.1c0.3-4.2,1.4-28.9,1.6-32.1c0.2-3.2,1.8-26.7,2-27.8
			C116.1,4.3,121.2,3.3,121.1,4.5z"/>
		<path class="st64" d="M121.1,4.5c-0.2,1.5-0.5,16.9-0.9,22.9c-0.4,6-1.6,23.2-1.8,28.4c-0.5,12.8-1.8,30-1.8,31.5
			c0,1.4-3.8-0.7-7.6-0.1c-1.5,0.2,3.2-17.8,3.4-22c0.3-4.2,1.4-28.9,1.6-32.1c0.2-3.2,1.8-26.7,2-27.8
			C116.1,4.3,121.2,3.3,121.1,4.5z"/>
		<path class="st65" d="M121,4.5c-0.1,1.5-0.5,16.9-0.9,22.9c-0.4,6-1.6,23.2-1.8,28.4c-0.5,12.6-1.8,29.9-1.8,31.5
			c0,1.4-3.8-0.7-7.5-0.1c-1.5,0.2,3.1-17.7,3.4-22c0.3-4.2,1.4-28.9,1.6-32.1c0.2-3.2,1.8-26.7,2-27.8C116,4.3,121.1,3.3,121,4.5z"
			/>
		<path class="st66" d="M121,4.5c-0.1,1.5-0.5,16.9-0.9,22.9c-0.4,6-1.6,23.2-1.8,28.4c-0.5,12.5-1.8,29.8-1.8,31.4
			c0,1.4-3.8-0.6-7.4-0.1c-1.5,0.2,3-17.7,3.3-21.9c0.3-4.2,1.4-28.9,1.6-32.1c0.2-3.2,1.8-26.7,2-27.8C116,4.3,121.1,3.3,121,4.5z"
			/>
		<path class="st67" d="M121,4.5c-0.1,1.5-0.6,16.9-1,22.9c-0.4,6-1.6,23.2-1.8,28.4c-0.5,12.3-1.7,29.8-1.8,31.4
			c0,1.4-3.8-0.6-7.4-0.1c-1.5,0.2,2.9-17.6,3.2-21.8c0.3-4.2,1.4-28.9,1.6-32.1c0.2-3.2,1.8-26.7,2-27.8C116,4.3,121.1,3.3,121,4.5
			z"/>
		<path class="st68" d="M120.9,4.5c-0.1,1.5-0.6,16.9-1,22.8c-0.4,6-1.6,23.2-1.8,28.4c-0.4,12.1-1.7,29.7-1.8,31.3
			c0,1.4-3.7-0.6-7.3-0.1c-1.5,0.2,2.9-17.6,3.1-21.8c0.3-4.2,1.4-28.9,1.6-32.1c0.2-3.2,1.8-26.7,2-27.8
			C115.9,4.3,121,3.3,120.9,4.5z"/>
		<path class="st69" d="M120.9,4.5c-0.1,1.5-0.6,16.9-1,22.8c-0.4,6-1.6,23.2-1.8,28.4c-0.4,11.9-1.7,29.6-1.8,31.3
			c0,1.4-3.7-0.6-7.2-0.1c-1.5,0.2,2.8-17.5,3-21.7c0.3-4.2,1.4-28.9,1.6-32.1c0.2-3.2,1.8-26.7,2-27.8C115.9,4.3,121,3.3,120.9,4.5
			z"/>
		<path class="st70" d="M120.9,4.5c-0.1,1.5-0.6,16.9-1,22.8c-0.4,6-1.6,23.2-1.8,28.4c-0.4,11.7-1.7,29.5-1.7,31.2
			c0,1.4-3.7-0.6-7.1-0.1c-1.5,0.2,2.7-17.4,3-21.7c0.3-4.2,1.4-28.9,1.6-32.1c0.2-3.2,1.8-26.7,2-27.8C115.9,4.3,121,3.3,120.9,4.5
			z"/>
		<path class="st71" d="M120.8,4.5c-0.1,1.5-0.7,16.9-1.1,22.8c-0.4,6-1.6,23.2-1.8,28.4c-0.4,11.6-1.7,29.5-1.7,31.2
			c-0.1,1.4-3.6-0.6-7-0.1c-1.5,0.2,2.6-17.4,2.9-21.6c0.3-4.2,1.4-28.9,1.6-32.1c0.2-3.2,1.8-26.7,2-27.8
			C115.8,4.3,120.9,3.3,120.8,4.5z"/>
		<path class="st72" d="M120.8,4.5c-0.1,1.5-0.7,16.9-1.1,22.8c-0.4,6-1.6,23.2-1.8,28.4c-0.4,11.4-1.6,29.4-1.7,31.1
			c-0.1,1.4-3.6-0.5-6.9-0.1c-1.5,0.2,2.5-17.3,2.8-21.5c0.3-4.2,1.4-28.9,1.6-32.1c0.2-3.2,1.8-26.7,2-27.8
			C115.8,4.3,120.9,3.3,120.8,4.5z"/>
		<path class="st73" d="M120.8,4.5c-0.1,1.5-0.7,16.9-1.1,22.8c-0.4,6-1.6,23.2-1.8,28.4c-0.4,11.2-1.6,29.3-1.7,31
			c-0.1,1.4-3.6-0.5-6.9,0c-1.5,0.2,2.5-17.3,2.7-21.5c0.3-4.2,1.4-28.9,1.6-32.1c0.2-3.2,1.8-26.7,2-27.8
			C115.8,4.3,120.8,3.3,120.8,4.5z"/>
		<path class="st74" d="M120.7,4.5c-0.1,1.5-0.8,16.9-1.2,22.8c-0.4,6-1.6,23.2-1.8,28.4c-0.4,11-1.6,29.2-1.7,31
			c-0.1,1.4-3.5-0.5-6.8,0c-1.5,0.2,2.4-17.2,2.7-21.4c0.3-4.2,1.4-28.9,1.6-32.1c0.2-3.2,1.8-26.7,2-27.8
			C115.7,4.3,120.8,3.3,120.7,4.5z"/>
		<path class="st75" d="M120.7,4.5c-0.1,1.5-0.8,16.9-1.2,22.8c-0.4,6-1.6,23.2-1.8,28.4c-0.4,10.8-1.6,29.1-1.6,30.9
			c-0.1,1.4-3.5-0.5-6.7,0c-1.5,0.2,2.3-17.1,2.6-21.4c0.3-4.2,1.4-28.9,1.6-32.1c0.2-3.2,1.8-26.7,2-27.8
			C115.7,4.3,120.8,3.3,120.7,4.5z"/>
		<path class="st76" d="M120.7,4.5c-0.1,1.5-0.8,16.9-1.2,22.8c-0.4,6-1.6,23.2-1.8,28.4c-0.3,10.6-1.5,29.1-1.6,30.9
			c-0.1,1.4-3.5-0.5-6.6,0c-1.5,0.2,2.2-17.1,2.5-21.3c0.3-4.2,1.4-28.9,1.6-32.1c0.2-3.2,1.8-26.7,2-27.8
			C115.7,4.3,120.7,3.3,120.7,4.5z"/>
		<path class="st77" d="M120.6,4.5c-0.1,1.5-0.8,16.8-1.2,22.8c-0.4,6-1.6,23.2-1.8,28.4c-0.3,10.5-1.5,29-1.6,30.8
			c-0.1,1.4-3.4-0.4-6.5,0c-1.5,0.2,2.2-17,2.4-21.2c0.3-4.2,1.4-28.9,1.6-32.1c0.2-3.2,1.8-26.7,2-27.8
			C115.6,4.3,120.7,3.3,120.6,4.5z"/>
		<path class="st78" d="M120.6,4.5c-0.1,1.5-0.9,16.8-1.3,22.8c-0.4,6-1.6,23.2-1.8,28.4c-0.3,10.3-1.5,28.9-1.6,30.8
			c-0.1,1.4-3.4-0.4-6.4,0c-1.5,0.2,2.1-17,2.4-21.2c0.3-4.2,1.4-28.9,1.6-32.1c0.2-3.2,1.8-26.7,2-27.8
			C115.6,4.3,120.7,3.3,120.6,4.5z"/>
		<path class="st79" d="M120.6,4.5c-0.1,1.5-0.9,16.8-1.3,22.8c-0.4,6-1.6,23.2-1.8,28.4c-0.3,10.1-1.5,28.8-1.6,30.7
			c-0.1,1.4-3.4-0.4-6.4,0c-1.5,0.2,2-16.9,2.3-21.1c0.3-4.2,1.4-28.9,1.6-32.1c0.2-3.2,1.8-26.7,2-27.8
			C115.6,4.3,120.6,3.3,120.6,4.5z"/>
		<path class="st80" d="M120.5,4.5c-0.1,1.5-0.9,16.8-1.3,22.8c-0.4,6-1.6,23.2-1.8,28.4c-0.3,9.9-1.4,28.8-1.6,30.6
			c-0.1,1.4-3.3-0.4-6.3,0c-1.5,0.2,1.9-16.8,2.2-21.1c0.3-4.2,1.4-28.9,1.6-32.1c0.2-3.2,1.8-26.7,2-27.8
			C115.5,4.3,120.6,3.3,120.5,4.5z"/>
		<path class="st81" d="M120.5,4.5c-0.1,1.5-0.9,16.8-1.3,22.8c-0.4,6-1.6,23.2-1.8,28.4c-0.3,9.7-1.4,28.7-1.5,30.6
			c-0.1,1.4-3.3-0.4-6.2,0c-1.5,0.2,1.9-16.8,2.1-21c0.3-4.2,1.4-28.9,1.6-32.1c0.2-3.2,1.8-26.7,2-27.8
			C115.5,4.3,120.6,3.3,120.5,4.5z"/>
		<path class="st82" d="M120.4,4.5c-0.1,1.5-1,16.8-1.4,22.8c-0.4,6-1.6,23.2-1.8,28.4c-0.3,9.6-1.4,28.6-1.5,30.5
			c-0.1,1.4-3.3-0.4-6.1,0c-1.5,0.2,1.8-16.7,2-20.9c0.3-4.2,1.4-28.9,1.6-32.1c0.2-3.2,1.8-26.7,2-27.8
			C115.5,4.3,120.5,3.3,120.4,4.5z"/>
		<path class="st83" d="M120.4,4.5c-0.1,1.5-1,16.8-1.4,22.8c-0.4,6-1.6,23.2-1.7,28.4c-0.3,9.4-1.4,28.5-1.5,30.5
			c-0.1,1.4-3.2-0.3-6,0c-1.5,0.2,1.7-16.6,2-20.9c0.3-4.2,1.4-28.9,1.6-32.1c0.2-3.2,1.8-26.7,2-27.8
			C115.4,4.3,120.5,3.3,120.4,4.5z"/>
		<path class="st84" d="M120.4,4.5c-0.1,1.5-1,16.8-1.4,22.8c-0.4,6-1.6,23.2-1.7,28.4c-0.3,9.2-1.4,28.5-1.5,30.4
			c-0.1,1.4-3.2-0.3-5.9,0c-1.5,0.2,1.6-16.6,1.9-20.8c0.3-4.2,1.4-28.9,1.6-32.1c0.2-3.2,1.8-26.7,2-27.8
			C115.4,4.3,120.4,3.3,120.4,4.5z"/>
		<path class="st85" d="M120.3,4.5c-0.1,1.5-1.1,16.8-1.5,22.8c-0.4,6-1.6,23.2-1.7,28.4c-0.2,9-1.3,28.4-1.5,30.4
			c-0.1,1.4-3.2-0.3-5.9,0c-1.5,0.2,1.5-16.5,1.8-20.8c0.3-4.2,1.4-28.9,1.6-32.1c0.2-3.2,1.8-26.7,2-27.8
			C115.4,4.3,120.4,3.3,120.3,4.5z"/>
		<path class="st86" d="M120.3,4.5c-0.1,1.5-1.1,16.8-1.5,22.8c-0.4,6-1.6,23.2-1.7,28.4c-0.2,8.8-1.3,28.3-1.5,30.3
			c-0.1,1.4-3.2-0.3-5.8,0c-1.5,0.2,1.5-16.5,1.7-20.7c0.3-4.2,1.4-28.9,1.6-32.1c0.2-3.2,1.8-26.7,2-27.8
			C115.3,4.3,120.4,3.3,120.3,4.5z"/>
		<path class="st87" d="M120.3,4.5c-0.1,1.5-1.1,16.8-1.5,22.8c-0.4,6-1.6,23.2-1.7,28.4c-0.2,8.7-1.3,28.2-1.4,30.2
			c-0.1,1.4-3.1-0.3-5.7,0c-1.5,0.2,1.4-16.4,1.7-20.6c0.3-4.2,1.4-28.9,1.6-32.1c0.2-3.2,1.8-26.7,2-27.8
			C115.3,4.3,120.3,3.3,120.3,4.5z"/>
		<path class="st88" d="M120.2,4.5c-0.1,1.5-1.1,16.8-1.5,22.8c-0.4,6-1.6,23.2-1.7,28.4c-0.2,8.5-1.3,28.2-1.4,30.2
			c-0.1,1.4-3.1-0.3-5.6,0c-1.5,0.2,1.3-16.3,1.6-20.6c0.3-4.2,1.4-28.9,1.6-32.1c0.2-3.2,1.8-26.7,2-27.8
			C115.3,4.3,120.3,3.3,120.2,4.5z"/>
		<path class="st89" d="M120.2,4.5c-0.1,1.5-1.2,16.8-1.6,22.8c-0.4,6-1.6,23.2-1.7,28.4c-0.2,8.3-1.2,28.1-1.4,30.1
			c-0.1,1.4-3.1-0.2-5.5,0c-1.5,0.2,1.2-16.3,1.5-20.5c0.3-4.2,1.4-28.9,1.6-32.1c0.2-3.2,1.8-26.7,2-27.8
			C115.2,4.3,120.3,3.3,120.2,4.5z"/>
		<path class="st90" d="M120.2,4.5c-0.1,1.5-1.2,16.8-1.6,22.8c-0.4,6-1.6,23.2-1.7,28.4c-0.2,8.1-1.2,28-1.4,30.1
			c-0.1,1.4-3-0.2-5.4,0c-1.5,0.1,1.2-16.2,1.4-20.5c0.3-4.2,1.4-28.9,1.6-32.1c0.2-3.2,1.8-26.7,2-27.8
			C115.2,4.3,120.2,3.3,120.2,4.5z"/>
		<path class="st91" d="M120.1,4.5c-0.1,1.5-1.2,16.8-1.6,22.7c-0.4,6-1.6,23.2-1.7,28.4c-0.2,7.9-1.2,27.9-1.4,30
			c-0.1,1.4-3-0.2-5.3,0c-1.5,0.1,1.1-16.2,1.3-20.4c0.3-4.2,1.4-28.9,1.6-32.1c0.2-3.2,1.8-26.7,2-27.8
			C115.2,4.3,120.2,3.3,120.1,4.5z"/>
		<path class="st92" d="M120.1,4.5c0,1.5-1.3,16.8-1.7,22.7c-0.4,6-1.6,23.2-1.7,28.4c-0.2,7.7-1.2,27.8-1.4,30
			c-0.1,1.4-3-0.2-5.3,0c-1.5,0.1,1-16.1,1.3-20.3c0.3-4.2,1.4-28.9,1.6-32.1c0.2-3.2,1.8-26.7,2-27.8
			C115.1,4.3,120.1,3.3,120.1,4.5z"/>
		<path class="st93" d="M120.1,4.5c0,1.5-1.3,16.8-1.7,22.7c-0.4,6-1.6,23.2-1.7,28.4c-0.2,7.6-1.1,27.8-1.3,29.9
			c-0.1,1.4-2.9-0.2-5.2,0c-1.5,0.1,0.9-16,1.2-20.3c0.3-4.2,1.4-28.9,1.6-32.1c0.2-3.2,1.8-26.7,2-27.8
			C115.1,4.3,120.1,3.3,120.1,4.5z"/>
		<path class="st94" d="M120,4.5c0,1.5-1.3,16.8-1.7,22.7c-0.4,6-1.6,23.2-1.7,28.4c-0.2,7.4-1.1,27.7-1.3,29.9
			c-0.1,1.4-2.9-0.2-5.1,0c-1.5,0.1,0.8-16,1.1-20.2c0.3-4.2,1.4-28.9,1.6-32.1c0.2-3.2,1.8-26.7,2-27.8
			C115.1,4.3,120.1,3.3,120,4.5z"/>
		<path class="st95" d="M120,4.5c0,1.5-1.3,16.8-1.7,22.7c-0.4,6-1.6,23.2-1.7,28.4c-0.1,7.2-1.1,27.6-1.3,29.8
			c-0.1,1.4-2.9-0.2-5,0c-1.5,0.1,0.8-15.9,1-20.1c0.3-4.2,1.4-28.9,1.6-32.1c0.2-3.2,1.8-26.7,2-27.8C115,4.3,120,3.3,120,4.5z"/>
		<path class="st96" d="M120,4.5c0,1.4-1.4,16.8-1.8,22.7c-0.4,6-1.6,23.2-1.7,28.4c-0.1,7-1.1,27.5-1.3,29.7
			c-0.1,1.4-2.8-0.1-4.9,0c-1.6,0.1,0.7-15.9,1-20.1c0.3-4.2,1.4-28.9,1.6-32.1c0.2-3.2,1.8-26.7,2-27.8C115,4.3,120,3.3,120,4.5z"
			/>
		<path class="st97" d="M119.9,4.5c0,1.4-1.4,16.8-1.8,22.7c-0.4,6-1.6,23.2-1.7,28.4c-0.1,6.8-1.1,27.5-1.3,29.7
			c-0.1,1.4-2.8-0.1-4.8,0c-1.6,0.1,0.6-15.8,0.9-20c0.3-4.2,1.4-28.9,1.6-32.1c0.2-3.2,1.8-26.7,2-27.8C115,4.3,120,3.3,119.9,4.5z
			"/>
		<path class="st98" d="M119.9,4.5c0,1.4-1.4,16.8-1.8,22.7c-0.4,6-1.6,23.1-1.7,28.4c-0.1,6.7-1,27.4-1.3,29.6
			c-0.1,1.4-2.8-0.1-4.8,0c-1.6,0.1,0.5-15.7,0.8-20c0.3-4.2,1.4-28.9,1.6-32.1c0.2-3.2,1.8-26.7,2-27.8
			C114.9,4.3,119.9,3.3,119.9,4.5z"/>
		<path class="st99" d="M119.9,4.5c0,1.4-1.5,16.8-1.9,22.7c-0.4,6-1.6,23.1-1.7,28.3c-0.1,6.5-1,27.3-1.2,29.6
			c-0.1,1.4-2.7-0.1-4.7,0c-1.6,0.1,0.5-15.7,0.7-19.9c0.3-4.2,1.4-28.9,1.6-32.1c0.2-3.2,1.8-26.7,2-27.8
			C114.9,4.3,119.9,3.3,119.9,4.5z"/>
		<path class="st100" d="M119.8,4.5c0,1.4-1.5,16.7-1.9,22.7c-0.4,6-1.6,23.1-1.7,28.3c-0.1,6.3-1,27.2-1.2,29.5
			c-0.1,1.4-2.7-0.1-4.6,0c-1.6,0.1,0.4-15.6,0.6-19.8c0.3-4.2,1.4-28.9,1.6-32.1c0.2-3.2,1.8-26.7,2-27.8
			C114.9,4.3,119.9,3.3,119.8,4.5z"/>
		<path class="st101" d="M119.8,4.5c0,1.4-1.5,16.7-1.9,22.7c-0.4,6-1.6,23.1-1.7,28.3c-0.1,6.1-1,27.2-1.2,29.5
			c-0.1,1.4-2.7-0.1-4.5,0c-1.6,0.1,0.3-15.6,0.6-19.8c0.3-4.2,1.4-28.9,1.6-32.1c0.2-3.2,1.8-26.7,2-27.8
			C114.8,4.3,119.8,3.3,119.8,4.5z"/>
		<path class="st102" d="M119.8,4.5c0,1.4-1.5,16.7-1.9,22.7c-0.4,6-1.6,23.1-1.7,28.3c-0.1,5.9-0.9,27.1-1.2,29.4
			c-0.1,1.4-2.7-0.1-4.4,0c-1.6,0.1,0.2-15.5,0.5-19.7c0.3-4.2,1.4-28.9,1.6-32.1c0.2-3.2,1.8-26.7,2-27.8
			C114.8,4.3,119.8,3.3,119.8,4.5z"/>
		<path class="st103" d="M119.7,4.5c0,1.4-1.6,16.7-2,22.7c-0.4,6-1.6,23.1-1.7,28.3c-0.1,5.7-0.9,27-1.2,29.3c-0.1,1.4-2.6,0-4.3,0
			c-1.6,0.1,0.1-15.4,0.4-19.7c0.3-4.2,1.4-28.9,1.6-32.1c0.2-3.2,1.8-26.7,2-27.8C114.8,4.3,119.7,3.3,119.7,4.5z"/>
		<path class="st104" d="M119.7,4.5c0,1.4-1.6,16.7-2,22.7c-0.4,6-1.6,23.1-1.7,28.3c-0.1,5.6-0.9,26.9-1.2,29.3
			c-0.2,1.4-2.6,0-4.3,0c-1.6,0.1,0.1-15.4,0.3-19.6c0.3-4.2,1.4-28.9,1.6-32.1c0.2-3.2,1.8-26.7,2-27.8
			C114.7,4.3,119.7,3.3,119.7,4.5z"/>
		<path class="st105" d="M119.7,4.5c0,1.4-1.6,16.7-2,22.7c-0.4,6-1.6,23.1-1.6,28.3c-0.1,5.4-0.9,26.9-1.1,29.2
			c-0.2,1.4-2.6,0-4.2,0c-1.6,0.1,0-15.3,0.3-19.5c0.3-4.2,1.4-28.9,1.6-32.1c0.2-3.2,1.8-26.7,2-27.8
			C114.7,4.3,119.7,3.3,119.7,4.5z"/>
		<path d="M119.6,4.5c0,1.4-1.6,16.7-2,22.7c-0.4,6-1.6,23.1-1.6,28.3c0,5.2-0.8,26.8-1.1,29.2c-0.2,1.4-2.5,0-4.1,0
			c-1.6,0-0.1-15.3,0.2-19.5c0.3-4.2,1.4-28.9,1.6-32.1c0.2-3.2,1.8-26.7,2-27.8C114.7,4.3,119.6,3.3,119.6,4.5z"/>
	</g>
	<path class="st134" d="M115.6,87.1c0,0-1.1-0.8-3.8-0.8c-2,0-3.5,0.8-3.5,0.8S108,87,108,86.8c0.1-2.8,1.9-31,2.9-51.7
		c0.8-18.4,2.6-31.3,2.6-31.3s1.4-0.6,3.8-0.6c2.4,0,3.3,0.4,3.3,0.4s-1.4,13.3-2.5,31.5C116.8,58.6,115.6,87.1,115.6,87.1z"/>
	<path class="st53" d="M115.3,86.8c0,0-1.1-0.8-3.8-0.8c-2,0-3.5,0.8-3.5,0.8s1.6-30.1,2.6-51.9c0.8-18.4,2.6-31.3,2.6-31.3
		s1.4-0.6,3.8-0.6c2.4,0,3.5,0.6,3.5,0.6s-1.6,13.1-2.6,31.3C116.5,58.3,115.3,86.8,115.3,86.8z"/>
</g>
</svg>
